<svg width="59" height="60" viewBox="0 0 59 60" fill="none" xmlns="http://www.w3.org/2000/svg">
<path d="M9.979 15.8016V17.8125H11.854V15.8016C12.9368 15.4584 13.729 14.4563 13.729 13.2619C13.729 12.2419 13.1628 11.325 12.2496 10.8684L10.4224 9.95438C10.1487 9.81844 9.979 9.54375 9.979 9.23812C9.979 8.79656 10.339 8.4375 10.7796 8.4375H11.0524C11.494 8.4375 11.854 8.79656 11.854 9.23812V9.375H13.729V9.23812C13.729 8.04375 12.9368 7.04156 11.854 6.69844V4.6875H9.979V6.69844C8.89619 7.04156 8.104 8.04375 8.104 9.23812C8.104 10.2581 8.67025 11.175 9.58338 11.6316L11.4106 12.5456C11.6843 12.6816 11.854 12.9563 11.854 13.2619C11.854 13.7034 11.494 14.0625 11.0534 14.0625H10.7806C10.339 14.0625 9.979 13.7034 9.979 13.2619V12.1875H8.104V13.2619C8.104 14.4563 8.89619 15.4584 9.979 15.8016Z" fill="white"/>
<path d="M11.854 44.1984V42.1875H9.979V44.1984C8.89619 44.5416 8.104 45.5438 8.104 46.7381C8.104 47.7581 8.67025 48.6741 9.58338 49.1316L11.4106 50.0456C11.6843 50.1816 11.854 50.4563 11.854 50.7619C11.854 51.2025 11.494 51.5625 11.0534 51.5625H10.7806C10.339 51.5625 9.979 51.2025 9.979 50.7619V49.6875H8.104V50.7619C8.104 51.9572 8.89619 52.9594 9.979 53.3016V55.3125H11.854V53.3016C12.9368 52.9584 13.729 51.9563 13.729 50.7619C13.729 49.7419 13.1628 48.8259 12.2496 48.3684L10.4224 47.4544C10.1487 47.3184 9.979 47.0438 9.979 46.7381C9.979 46.2975 10.339 45.9375 10.7796 45.9375H11.0524C11.494 45.9375 11.854 46.2975 11.854 46.7381V46.875H13.729V46.7381C13.729 45.5438 12.9368 44.5416 11.854 44.1984Z" fill="white"/>
<path d="M10.9165 21.5625C15.334 21.5625 19.0999 18.765 20.5662 14.8538L27.7962 16.8253C27.7962 16.8422 27.7915 16.8581 27.7915 16.875C27.7915 18.9431 29.4734 20.625 31.5415 20.625C33.4962 20.625 35.0871 19.1166 35.2578 17.2059L39.3706 16.5206C39.9556 17.8312 41.2653 18.75 42.7915 18.75C43.6756 18.75 44.4771 18.4303 45.1193 17.9166L55.4768 25.6847L52.0128 26.2622L52.3203 28.1119L58.8696 27.0197L57.7784 20.4703L55.9287 20.7787L56.4818 24.0966L46.2556 16.4269C46.4384 15.9862 46.5415 15.5053 46.5415 15C46.5415 12.9319 44.8596 11.25 42.7915 11.25C40.8368 11.25 39.2459 12.7584 39.0753 14.6691L34.9624 15.3544C34.3774 14.0437 33.0678 13.125 31.5415 13.125C30.1512 13.125 28.9503 13.8938 28.3024 15.0197L21.0621 13.0453C21.1653 12.4613 21.229 11.8631 21.229 11.25C21.229 5.56406 16.6024 0.9375 10.9165 0.9375C5.23057 0.9375 0.604004 5.56406 0.604004 11.25C0.604004 16.9359 5.23057 21.5625 10.9165 21.5625ZM42.7915 13.125C43.8256 13.125 44.6665 13.9659 44.6665 15C44.6665 16.0341 43.8256 16.875 42.7915 16.875C41.7574 16.875 40.9165 16.0341 40.9165 15C40.9165 13.9659 41.7574 13.125 42.7915 13.125ZM31.5415 15C32.5756 15 33.4165 15.8409 33.4165 16.875C33.4165 17.9091 32.5756 18.75 31.5415 18.75C30.5074 18.75 29.6665 17.9091 29.6665 16.875C29.6665 15.8409 30.5074 15 31.5415 15ZM10.9165 2.8125C15.5693 2.8125 19.354 6.59812 19.354 11.25C19.354 15.9019 15.5693 19.6875 10.9165 19.6875C6.26369 19.6875 2.479 15.9019 2.479 11.25C2.479 6.59812 6.26369 2.8125 10.9165 2.8125Z" fill="white"/>
<path d="M15.604 30.9375H13.3493C12.7868 29.8303 11.6487 29.0625 10.324 29.0625H7.759C5.88119 29.0625 4.354 30.5897 4.354 32.4675C4.354 32.7834 4.39807 33.0984 4.48525 33.4022L6.13713 39.1856L2.479 44.0625C1.26963 45.6759 0.604004 47.6737 0.604004 49.6875C0.604004 54.8569 4.80963 59.0625 9.979 59.0625H11.854C13.1871 59.0625 14.4546 58.7784 15.604 58.2741V59.0625H24.979V23.4375H15.604V30.9375ZM7.759 30.9375H10.324C11.1678 30.9375 11.854 31.6237 11.854 32.4675V34.6875H13.729V32.8125H15.7653C16.7103 32.8125 17.479 33.5812 17.479 34.5262C17.479 34.9772 17.2962 35.4197 16.9774 35.7384L14.2784 38.4375H7.87432L6.28807 32.8866C6.24869 32.7506 6.229 32.6091 6.229 32.4675C6.229 31.6237 6.91525 30.9375 7.759 30.9375ZM9.979 57.1875C5.84369 57.1875 2.479 53.8228 2.479 49.6875C2.479 48.0759 3.0115 46.4775 3.979 45.1866L7.63525 40.3125H14.1978L17.854 45.1866C18.8215 46.4775 19.354 48.0759 19.354 49.6875C19.354 53.8228 15.9893 57.1875 11.854 57.1875H9.979ZM23.104 25.3125V57.1875H17.479V57.1697C19.7506 55.4569 21.229 52.7456 21.229 49.6875C21.229 47.6737 20.5634 45.6759 19.354 44.0625L15.904 39.4631L18.3031 37.0641C18.9809 36.3872 19.354 35.4853 19.354 34.5262C19.354 33.1716 18.5899 32.0034 17.479 31.3931V25.3125H23.104Z" fill="white"/>
<path d="M26.854 59.0625H36.229V29.0625H26.854V59.0625ZM28.729 30.9375H34.354V57.1875H28.729V30.9375Z" fill="white"/>
<path d="M38.104 59.0625H47.479V24.375H38.104V59.0625ZM39.979 26.25H45.604V57.1875H39.979V26.25Z" fill="white"/>
<path d="M49.354 59.0625H58.729V32.8125H49.354V59.0625ZM51.229 34.6875H56.854V57.1875H51.229V34.6875Z" fill="white"/>
</svg>
