<svg width="60" height="60" viewBox="0 0 60 60" fill="none" xmlns="http://www.w3.org/2000/svg">
<g clip-path="url(#clip0)">
<path d="M44.7491 18.982C44.7491 16.9215 43.0788 15.2511 41.0183 15.2511H18.982C16.9215 15.2511 15.2511 16.9215 15.2511 18.982V41.0183C15.2511 43.0788 16.9215 44.7491 18.982 44.7491H41.0183C43.0788 44.7491 44.7491 43.0788 44.7491 41.0183V18.982ZM42.7964 41.0183C42.7964 42.0001 42.0001 42.7964 41.0183 42.7964H18.982C17.9997 42.7964 17.2038 42.0001 17.2038 41.0183V18.982C17.2038 17.9996 17.9996 17.2038 18.982 17.2038H41.0183C42.0001 17.2038 42.7964 17.9997 42.7964 18.982V41.0183Z" fill="white" stroke="white" stroke-width="0.3"/>
<path d="M48.8809 16.2276C48.8809 13.4063 46.594 11.1194 43.7727 11.1194H16.2274C13.4062 11.1194 11.1193 13.4063 11.1193 16.2276V43.7729C11.1193 46.5941 13.4062 48.881 16.2274 48.881H43.7727C46.594 48.881 48.8809 46.5941 48.8809 43.7729V16.2276ZM46.9282 43.7729C46.9282 45.5154 45.5153 46.9283 43.7727 46.9283H16.2274C14.4843 46.9283 13.072 45.5154 13.072 43.7729V16.2276C13.072 14.4845 14.4843 13.0721 16.2274 13.0721H43.7727C45.5153 13.0721 46.9282 14.4845 46.9282 16.2276V43.7729Z" fill="white" stroke="white" stroke-width="0.3"/>
<path d="M33.0302 51.3107C32.4906 51.3107 32.0539 51.7481 32.0539 52.2871V59.1734C32.0539 59.713 32.4906 60.1497 33.0302 60.1497C33.5692 60.1497 34.0066 59.713 34.0066 59.1734V52.2871C34.0066 51.748 33.5693 51.3107 33.0302 51.3107Z" fill="white" stroke="white" stroke-width="0.3"/>
<path d="M26.9702 51.3107C26.4305 51.3107 25.9938 51.7481 25.9938 52.2871V59.1734C25.9938 59.713 26.4306 60.1497 26.9702 60.1497C27.5092 60.1497 27.9465 59.713 27.9465 59.1734V52.2871C27.9465 51.748 27.5092 51.3107 26.9702 51.3107Z" fill="white" stroke="white" stroke-width="0.3"/>
<path d="M21.048 51.3107C20.5084 51.3107 20.0717 51.7481 20.0717 52.2871V59.1734C20.0717 59.713 20.5084 60.1497 21.048 60.1497C21.587 60.1497 22.0244 59.713 22.0244 59.1734V52.2871C22.0244 51.748 21.5871 51.3107 21.048 51.3107Z" fill="white" stroke="white" stroke-width="0.3"/>
<path d="M38.9523 51.3107C38.4127 51.3107 37.976 51.7481 37.976 52.2871V59.1734C37.976 59.713 38.4127 60.1497 38.9523 60.1497C39.4913 60.1497 39.9287 59.713 39.9287 59.1734V52.2871C39.9287 51.748 39.4914 51.3107 38.9523 51.3107Z" fill="white" stroke="white" stroke-width="0.3"/>
<path d="M27.9465 7.71268V0.826359C27.9465 0.287297 27.5092 -0.15 26.9702 -0.15C26.4305 -0.15 25.9938 0.287361 25.9938 0.826359V7.71268C25.9938 8.25168 26.4305 8.68904 26.9702 8.68904C27.5092 8.68904 27.9465 8.25175 27.9465 7.71268Z" fill="white" stroke="white" stroke-width="0.3"/>
<path d="M34.0066 7.71268V0.826359C34.0066 0.287296 33.5693 -0.15 33.0302 -0.15C32.4906 -0.15 32.0539 0.28736 32.0539 0.826359V7.71268C32.0539 8.25168 32.4906 8.68904 33.0302 8.68904C33.5693 8.68904 34.0066 8.25175 34.0066 7.71268Z" fill="white" stroke="white" stroke-width="0.3"/>
<path d="M39.9287 7.71268V0.826359C39.9287 0.287297 39.4914 -0.15 38.9523 -0.15C38.4127 -0.15 37.976 0.287361 37.976 0.826359V7.71268C37.976 8.25168 38.4127 8.68904 38.9523 8.68904C39.4914 8.68904 39.9287 8.25175 39.9287 7.71268Z" fill="white" stroke="white" stroke-width="0.3"/>
<path d="M22.0244 7.71268V0.826359C22.0244 0.287297 21.5871 -0.15 21.048 -0.15C20.5084 -0.15 20.0717 0.287361 20.0717 0.826359V7.71268C20.0717 8.25168 20.5084 8.68904 21.048 8.68904C21.5871 8.68904 22.0244 8.25175 22.0244 7.71268Z" fill="white" stroke="white" stroke-width="0.3"/>
<path d="M59.1734 25.9938H52.2871C51.7481 25.9938 51.3107 26.4305 51.3107 26.9702C51.3107 27.5092 51.748 27.9465 52.2871 27.9465H59.1734C59.713 27.9465 60.1497 27.5092 60.1497 26.9702C60.1497 26.4306 59.713 25.9938 59.1734 25.9938Z" fill="white" stroke="white" stroke-width="0.3"/>
<path d="M59.1734 32.0537H52.2871C51.7481 32.0537 51.3107 32.4904 51.3107 33.0301C51.3107 33.5692 51.748 34.0065 52.2871 34.0065H59.1734C59.713 34.0065 60.1497 33.5691 60.1497 33.0301C60.1497 32.4905 59.713 32.0537 59.1734 32.0537Z" fill="white" stroke="white" stroke-width="0.3"/>
<path d="M59.1734 37.976H52.2871C51.7481 37.976 51.3107 38.4127 51.3107 38.9523C51.3107 39.4914 51.748 39.9287 52.2871 39.9287H59.1734C59.713 39.9287 60.1497 39.4913 60.1497 38.9523C60.1497 38.4127 59.713 37.976 59.1734 37.976Z" fill="white" stroke="white" stroke-width="0.3"/>
<path d="M59.1734 20.0716H52.2871C51.7481 20.0716 51.3107 20.5083 51.3107 21.0479C51.3107 21.587 51.748 22.0243 52.2871 22.0243H59.1734C59.713 22.0243 60.1497 21.5869 60.1497 21.0479C60.1497 20.5083 59.713 20.0716 59.1734 20.0716Z" fill="white" stroke="white" stroke-width="0.3"/>
<path d="M7.71268 32.0537H0.826359C0.28736 32.0537 -0.15 32.4904 -0.15 33.0301C-0.15 33.5692 0.287296 34.0065 0.826359 34.0065H7.71268C8.25175 34.0065 8.68904 33.5692 8.68904 33.0301C8.68904 32.4904 8.25168 32.0537 7.71268 32.0537Z" fill="white" stroke="white" stroke-width="0.3"/>
<path d="M7.71268 25.9938H0.826359C0.287361 25.9938 -0.15 26.4305 -0.15 26.9702C-0.15 27.5092 0.287297 27.9465 0.826359 27.9465H7.71268C8.25175 27.9465 8.68904 27.5092 8.68904 26.9702C8.68904 26.4305 8.25168 25.9938 7.71268 25.9938Z" fill="white" stroke="white" stroke-width="0.3"/>
<path d="M7.71268 20.0716H0.826359C0.287361 20.0716 -0.15 20.5083 -0.15 21.0479C-0.15 21.587 0.287297 22.0243 0.826359 22.0243H7.71268C8.25175 22.0243 8.68904 21.587 8.68904 21.0479C8.68904 20.5083 8.25168 20.0716 7.71268 20.0716Z" fill="white" stroke="white" stroke-width="0.3"/>
<path d="M7.71268 37.976H0.826359C0.287361 37.976 -0.15 38.4127 -0.15 38.9523C-0.15 39.4914 0.287297 39.9287 0.826359 39.9287H7.71268C8.25175 39.9287 8.68904 39.4914 8.68904 38.9523C8.68904 38.4127 8.25168 37.976 7.71268 37.976Z" fill="white" stroke="white" stroke-width="0.3"/>
<path d="M29.2275 24.1409C29.106 23.7772 28.6519 23.5953 28.1973 23.5953C27.7427 23.5953 27.3031 23.7772 27.1821 24.1409L24.1672 33.9576C24.1548 34.0023 24.15 34.0486 24.1521 34.0943C24.1521 34.4881 24.7127 34.7609 25.1522 34.7609C25.425 34.7609 25.637 34.7028 25.7128 34.4601L26.3337 32.3415H30.076L30.6968 34.4601C30.7727 34.7028 30.9846 34.777 31.2423 34.777C31.6969 34.777 32.2575 34.4811 32.2575 34.1018C32.2548 34.0539 32.2446 34.0066 32.2269 33.9614L29.2275 24.1409ZM26.6823 30.9642L28.1973 25.7678L29.7123 30.9642H26.6823Z" fill="white"/>
<path d="M34.2697 23.6863C33.8759 23.6863 33.4434 23.8375 33.4434 24.2011V34.2304C33.4434 34.579 33.8759 34.7609 34.2697 34.7609C34.6786 34.7609 35.0961 34.579 35.0961 34.2304V24.2017C35.0961 23.8375 34.6786 23.6863 34.2697 23.6863Z" fill="white"/>
</g>
<defs>
<clipPath id="clip0">
<rect width="60" height="60" fill="white"/>
</clipPath>
</defs>
</svg>
