<svg width="60" height="60" viewBox="0 0 60 60" fill="none" xmlns="http://www.w3.org/2000/svg">
<path d="M54.125 47.8421C57.9388 42.7083 60 36.5126 60 30C60 21.9867 56.8795 14.4531 51.2133 8.78672C45.5469 3.12059 38.0133 0 30 0V3.51562C37.0743 3.51562 43.7251 6.27047 48.7273 11.2727C53.7295 16.275 56.4844 22.9257 56.4844 30C56.4844 35.7144 54.6859 41.1519 51.3584 45.668L50.9554 41.0614L47.4531 41.3678L48.3723 51.8745L58.8791 50.9552L58.5728 47.453L54.125 47.8421Z" fill="white"/>
<path d="M3.51562 29.9999C3.51562 24.2855 5.3141 18.848 8.64164 14.332L9.04465 18.9385L12.5469 18.6322L11.6277 8.12549L1.1209 9.04459L1.42723 12.5469L5.87484 12.1578C2.06121 17.2917 0 23.4874 0 29.9999C0 38.0132 3.12047 45.5469 8.78672 51.2132C14.4531 56.8794 21.9867 59.9999 30 59.9999V56.4843C22.9257 56.4843 16.2749 53.7295 11.2727 48.7272C6.27047 43.7249 3.51562 37.0742 3.51562 29.9999Z" fill="white"/>
<path d="M30 22.8516C26.0583 22.8516 22.8516 26.0583 22.8516 30C22.8516 33.9417 26.0583 37.1484 30 37.1484C33.9417 37.1484 37.1484 33.9417 37.1484 30C37.1484 26.0583 33.9417 22.8516 30 22.8516ZM30 33.6328C27.9969 33.6328 26.3672 32.0031 26.3672 30C26.3672 27.9969 27.9969 26.3672 30 26.3672C32.0031 26.3672 33.6328 27.9969 33.6328 30C33.6328 32.0031 32.0031 33.6328 30 33.6328Z" fill="white"/>
<path d="M46.2859 22.8601L42.8366 23.9809C42.0663 22.3448 40.9926 20.8789 39.6879 19.6562L41.8231 16.7174L38.9788 14.6509L36.8462 17.5862C35.3024 16.7313 33.5835 16.1559 31.7577 15.9292V12.3047H28.2421V15.9292C26.4163 16.1559 24.6974 16.7314 23.1536 17.5862L21.021 14.6509L18.1767 16.7174L20.3119 19.6562C19.0072 20.8789 17.9333 22.3447 17.1632 23.9809L13.7139 22.8601L12.6274 26.2036L16.0746 27.3237C15.9083 28.1907 15.8202 29.0852 15.8202 30C15.8202 30.9148 15.9083 31.8093 16.0746 32.6763L12.6274 33.7964L13.7139 37.1399L17.1632 36.0191C17.9335 37.6552 19.0072 39.1211 20.3119 40.3438L18.1767 43.2826L21.021 45.3491L23.1536 42.4138C24.6974 43.2687 26.4163 43.8441 28.2421 44.0708V47.6953H31.7577V44.0708C33.5835 43.8441 35.3024 43.2686 36.8462 42.4138L38.9788 45.3491L41.8231 43.2826L39.6879 40.3438C40.9926 39.1211 42.0665 37.6553 42.8366 36.0191L46.2859 37.1399L47.3724 33.7964L43.9252 32.6763C44.0915 31.8093 44.1796 30.9148 44.1796 30C44.1796 29.0852 44.0915 28.1907 43.9252 27.3237L47.3724 26.2036L46.2859 22.8601ZM29.9999 40.6641C24.1197 40.6641 19.3358 35.8802 19.3358 30C19.3358 24.1198 24.1197 19.3359 29.9999 19.3359C35.8801 19.3359 40.664 24.1198 40.664 30C40.664 35.8802 35.8801 40.6641 29.9999 40.6641Z" fill="white"/>
</svg>
