<svg width="61" height="60" viewBox="0 0 61 60" fill="none" xmlns="http://www.w3.org/2000/svg">
<g clip-path="url(#clip0)">
<mask id="path-1-outside-1" maskUnits="userSpaceOnUse" x="-0.499023" y="-0.533081" width="62" height="61" fill="black">
<rect fill="white" x="-0.499023" y="-0.533081" width="62" height="61"/>
<path d="M60.4729 42.5007C60.4644 42.4575 60.4532 42.4163 60.4391 42.3741C60.425 42.3357 60.4129 42.3 60.395 42.2635C60.3772 42.2297 60.3566 42.1988 60.336 42.166C60.321 42.1444 60.3182 42.1191 60.3022 42.0985C60.29 42.0825 60.2722 42.0769 60.26 42.0619C60.2319 42.03 60.2029 42.0029 60.171 41.9747C60.1579 41.9625 60.1513 41.9475 60.1382 41.9363L52.8932 36.301C52.9579 35.6054 53 34.9032 53 34.2057C53 25.38 47.8654 17.4329 39.8788 13.7644V7.95192C39.8788 7.93223 39.8685 7.91629 39.8675 7.89661C39.8647 7.85536 39.8591 7.81692 39.8516 7.77661C39.8432 7.73348 39.8319 7.69317 39.8179 7.65098C39.8047 7.61254 39.7925 7.57692 39.7738 7.54129C39.7569 7.50661 39.7354 7.47567 39.7147 7.44379C39.6997 7.42223 39.6969 7.39692 39.681 7.37629C39.6688 7.36036 39.651 7.35473 39.6379 7.33973C39.6107 7.30786 39.5816 7.28067 39.5497 7.25254C39.5366 7.24036 39.53 7.22536 39.5169 7.21411L31.0757 0.649731C31.056 0.634731 31.0325 0.630981 31.0129 0.618794C30.9585 0.582231 30.9022 0.556919 30.8422 0.532544C30.786 0.510981 30.7344 0.489419 30.6763 0.478169C30.6182 0.467856 30.56 0.466919 30.5 0.466919C30.441 0.466919 30.3829 0.467856 30.3238 0.479106C30.2657 0.490356 30.2141 0.511919 30.1579 0.534419C30.0988 0.557856 30.0425 0.583169 29.9882 0.618794C29.9675 0.632856 29.9432 0.635669 29.9244 0.650669L21.4832 7.21504C21.4672 7.22723 21.4616 7.24504 21.4466 7.25817C21.4175 7.28348 21.3904 7.30973 21.365 7.33786C21.351 7.35379 21.3322 7.36036 21.3191 7.37723C21.3022 7.39786 21.2994 7.42317 21.2854 7.44473C21.2638 7.47848 21.2413 7.51036 21.2244 7.54598C21.2075 7.57973 21.1963 7.61348 21.1832 7.65004C21.1682 7.69223 21.1569 7.73348 21.1485 7.77754C21.141 7.81786 21.1354 7.85723 21.1325 7.89848C21.1316 7.91817 21.1213 7.93411 21.1213 7.95473V13.7654C13.1347 17.4319 8.00004 25.3791 8.00004 34.2057C8.00004 34.9069 8.04223 35.6082 8.10598 36.301L0.862852 41.9344C0.846914 41.9466 0.841289 41.9644 0.826289 41.9775C0.797227 42.0029 0.770039 42.0291 0.743789 42.0582C0.730664 42.0732 0.711914 42.0797 0.698789 42.0966C0.682852 42.1172 0.679102 42.1425 0.665039 42.1632C0.643477 42.1979 0.620977 42.2288 0.604102 42.2654C0.587227 42.3 0.575977 42.3338 0.562852 42.3704C0.547852 42.4125 0.537539 42.4519 0.529102 42.495C0.520664 42.5363 0.515039 42.5757 0.512227 42.6179C0.511289 42.6375 0.500977 42.6535 0.500977 42.6741V52.0454C0.500977 52.065 0.511289 52.0819 0.512227 52.1016C0.516914 52.1672 0.532852 52.2282 0.550664 52.2919C0.566602 52.3482 0.578789 52.4025 0.604102 52.4541C0.629414 52.5057 0.664102 52.5488 0.699727 52.5947C0.739102 52.6482 0.777539 52.6988 0.827227 52.7419C0.842227 52.755 0.847852 52.7729 0.863789 52.785L9.30504 59.3494C9.3416 59.3785 9.38473 59.3916 9.42504 59.4132C9.44941 59.4282 9.47004 59.4479 9.49535 59.4591C9.51223 59.4675 9.5291 59.4732 9.54691 59.4788C9.65566 59.521 9.76723 59.5463 9.87973 59.5463H9.88066C9.88066 59.5463 9.88066 59.5463 9.8816 59.5463C9.9941 59.5463 10.1057 59.521 10.2144 59.4788C10.2322 59.4722 10.2491 59.4666 10.266 59.4591C10.2913 59.4479 10.3119 59.4282 10.3363 59.4132C10.3766 59.3916 10.4197 59.3785 10.4563 59.3494L18.41 53.1638C22.0241 55.4738 26.1829 56.7047 30.5 56.7047C34.8163 56.7047 38.9769 55.4738 42.59 53.1629L50.5447 59.3494C50.5813 59.3785 50.6244 59.3916 50.6647 59.4132C50.6891 59.4282 50.7097 59.4479 50.735 59.4591C50.7519 59.4675 50.7688 59.4732 50.7866 59.4788C50.8954 59.521 51.0069 59.5463 51.1194 59.5463H51.1203C51.1203 59.5463 51.1203 59.5463 51.1213 59.5463C51.2338 59.5463 51.3454 59.521 51.4541 59.4788C51.4719 59.4722 51.4888 59.4666 51.5057 59.4591C51.531 59.4479 51.5516 59.4282 51.576 59.4132C51.6163 59.3916 51.6594 59.3785 51.696 59.3494L60.1372 52.785C60.1532 52.7729 60.1588 52.755 60.1738 52.7419C60.2235 52.6988 60.2619 52.6472 60.3013 52.5947C60.336 52.5479 60.3716 52.5047 60.3969 52.4541C60.4222 52.4035 60.4344 52.3482 60.4504 52.2919C60.4682 52.2282 60.4841 52.1672 60.4888 52.1016C60.4897 52.0819 60.5 52.066 60.5 52.0454V42.675C60.5 42.6554 60.4897 42.6385 60.4888 42.6179C60.485 42.5775 60.4804 42.54 60.4729 42.5007ZM51.1203 37.2975L58.0335 42.675L51.1203 48.0507L44.2072 42.6732L51.1203 37.2975ZM43.6166 44.5904L50.1828 49.6979V56.6944L43.6166 51.5879V44.5904ZM52.0578 49.6979L58.6241 44.5913V51.5879L52.0578 56.6944V49.6979ZM30.5 2.57723L37.4132 7.95286L30.5 13.3294L23.5869 7.95379L30.5 2.57723ZM22.9963 14.3579C22.9963 14.3569 22.9963 14.355 22.9963 14.3541V9.86817L29.5625 14.9757V21.9732L22.9963 16.8657V14.3579ZM31.4375 14.9757L38.0038 9.86911V14.3325V14.3804V16.8675L31.4375 21.9732V14.9757ZM16.7929 42.676L9.87973 48.0516L2.9666 42.6741L9.87973 37.2985L16.7929 42.676ZM2.37598 44.5904L8.94223 49.6979V56.6944L2.37598 51.5879V44.5904ZM10.8172 49.6979L17.3835 44.5913V51.5879L10.8172 56.6944V49.6979ZM19.2585 51.4847V42.675C19.2585 42.6554 19.2482 42.6385 19.2472 42.6179C19.2444 42.5775 19.2388 42.54 19.2313 42.5007C19.2229 42.4575 19.2116 42.4163 19.1975 42.3741C19.1835 42.3357 19.1713 42.3 19.1535 42.2635C19.1357 42.2297 19.115 42.1988 19.0944 42.166C19.0794 42.1444 19.0766 42.1191 19.0607 42.0985C19.0485 42.0825 19.0307 42.0769 19.0175 42.0619C18.9904 42.03 18.9613 42.0029 18.9294 41.9747C18.9163 41.9625 18.9097 41.9475 18.8966 41.9363L10.4554 35.37C10.4357 35.3541 10.4113 35.3513 10.3916 35.3382C10.3382 35.3025 10.2838 35.2791 10.2247 35.2547C10.1675 35.2322 10.1141 35.2107 10.055 35.1985C10.0044 35.1891 9.95566 35.1863 9.90316 35.1854C9.88816 34.86 9.87504 34.5329 9.87504 34.2057C9.87504 26.4047 14.2457 19.3435 21.1213 15.8344V17.3232C21.1213 17.3429 21.1316 17.3597 21.1335 17.3804C21.1372 17.445 21.1532 17.505 21.171 17.5679C21.1869 17.625 21.1991 17.6804 21.2254 17.7319C21.2497 17.7835 21.2844 17.8266 21.32 17.8725C21.3594 17.926 21.3979 17.9766 21.4475 18.0197C21.4625 18.0329 21.4682 18.0507 21.4841 18.0629L29.9254 24.6291C29.9629 24.6582 30.005 24.6713 30.0454 24.6929C30.0697 24.7079 30.0904 24.7275 30.1157 24.7388C30.1325 24.7472 30.1494 24.7529 30.1672 24.7585C30.276 24.8007 30.3875 24.826 30.5 24.826H30.501H30.5019C30.6144 24.826 30.726 24.8007 30.8347 24.7585C30.8525 24.7519 30.8694 24.7463 30.8863 24.7388C30.9116 24.7275 30.9322 24.7079 30.9566 24.6929C30.9969 24.6713 31.0391 24.6582 31.0766 24.6291L39.5179 18.0647C39.5338 18.0525 39.5394 18.0347 39.5544 18.0216C39.6041 17.9785 39.6425 17.9269 39.6819 17.8744C39.7166 17.8275 39.7513 17.7844 39.7775 17.7338C39.8019 17.6822 39.815 17.6279 39.831 17.5716C39.8488 17.5079 39.8647 17.4469 39.8694 17.3813C39.8703 17.3616 39.8807 17.3457 39.8807 17.325V15.8344C46.7554 19.3454 51.125 26.4047 51.125 34.2057C51.125 34.5319 51.1119 34.8591 51.0969 35.1863C51.0444 35.1872 50.9966 35.19 50.946 35.1994C50.8869 35.2116 50.8325 35.2322 50.7754 35.2557C50.7172 35.2791 50.6629 35.3035 50.6104 35.3382C50.5897 35.3522 50.5644 35.356 50.5447 35.371L42.1035 41.9354C42.0875 41.9475 42.0819 41.9654 42.0669 41.9785C42.0379 42.0038 42.0107 42.03 41.9844 42.0591C41.9713 42.0741 41.9525 42.0807 41.9394 42.0975C41.9235 42.1182 41.9197 42.1435 41.9057 42.1641C41.8841 42.1988 41.8616 42.2297 41.8447 42.2663C41.8279 42.301 41.8166 42.3347 41.8035 42.3713C41.7885 42.4135 41.7782 42.4529 41.7697 42.496C41.7613 42.5372 41.7557 42.5766 41.7528 42.6188C41.7519 42.6385 41.7416 42.6544 41.7416 42.675V51.4838C38.3947 53.6682 34.521 54.8307 30.5 54.8307C26.4791 54.8307 22.6072 53.6682 19.2585 51.4847Z"/>
</mask>
<path d="M60.4729 42.5007C60.4644 42.4575 60.4532 42.4163 60.4391 42.3741C60.425 42.3357 60.4129 42.3 60.395 42.2635C60.3772 42.2297 60.3566 42.1988 60.336 42.166C60.321 42.1444 60.3182 42.1191 60.3022 42.0985C60.29 42.0825 60.2722 42.0769 60.26 42.0619C60.2319 42.03 60.2029 42.0029 60.171 41.9747C60.1579 41.9625 60.1513 41.9475 60.1382 41.9363L52.8932 36.301C52.9579 35.6054 53 34.9032 53 34.2057C53 25.38 47.8654 17.4329 39.8788 13.7644V7.95192C39.8788 7.93223 39.8685 7.91629 39.8675 7.89661C39.8647 7.85536 39.8591 7.81692 39.8516 7.77661C39.8432 7.73348 39.8319 7.69317 39.8179 7.65098C39.8047 7.61254 39.7925 7.57692 39.7738 7.54129C39.7569 7.50661 39.7354 7.47567 39.7147 7.44379C39.6997 7.42223 39.6969 7.39692 39.681 7.37629C39.6688 7.36036 39.651 7.35473 39.6379 7.33973C39.6107 7.30786 39.5816 7.28067 39.5497 7.25254C39.5366 7.24036 39.53 7.22536 39.5169 7.21411L31.0757 0.649731C31.056 0.634731 31.0325 0.630981 31.0129 0.618794C30.9585 0.582231 30.9022 0.556919 30.8422 0.532544C30.786 0.510981 30.7344 0.489419 30.6763 0.478169C30.6182 0.467856 30.56 0.466919 30.5 0.466919C30.441 0.466919 30.3829 0.467856 30.3238 0.479106C30.2657 0.490356 30.2141 0.511919 30.1579 0.534419C30.0988 0.557856 30.0425 0.583169 29.9882 0.618794C29.9675 0.632856 29.9432 0.635669 29.9244 0.650669L21.4832 7.21504C21.4672 7.22723 21.4616 7.24504 21.4466 7.25817C21.4175 7.28348 21.3904 7.30973 21.365 7.33786C21.351 7.35379 21.3322 7.36036 21.3191 7.37723C21.3022 7.39786 21.2994 7.42317 21.2854 7.44473C21.2638 7.47848 21.2413 7.51036 21.2244 7.54598C21.2075 7.57973 21.1963 7.61348 21.1832 7.65004C21.1682 7.69223 21.1569 7.73348 21.1485 7.77754C21.141 7.81786 21.1354 7.85723 21.1325 7.89848C21.1316 7.91817 21.1213 7.93411 21.1213 7.95473V13.7654C13.1347 17.4319 8.00004 25.3791 8.00004 34.2057C8.00004 34.9069 8.04223 35.6082 8.10598 36.301L0.862852 41.9344C0.846914 41.9466 0.841289 41.9644 0.826289 41.9775C0.797227 42.0029 0.770039 42.0291 0.743789 42.0582C0.730664 42.0732 0.711914 42.0797 0.698789 42.0966C0.682852 42.1172 0.679102 42.1425 0.665039 42.1632C0.643477 42.1979 0.620977 42.2288 0.604102 42.2654C0.587227 42.3 0.575977 42.3338 0.562852 42.3704C0.547852 42.4125 0.537539 42.4519 0.529102 42.495C0.520664 42.5363 0.515039 42.5757 0.512227 42.6179C0.511289 42.6375 0.500977 42.6535 0.500977 42.6741V52.0454C0.500977 52.065 0.511289 52.0819 0.512227 52.1016C0.516914 52.1672 0.532852 52.2282 0.550664 52.2919C0.566602 52.3482 0.578789 52.4025 0.604102 52.4541C0.629414 52.5057 0.664102 52.5488 0.699727 52.5947C0.739102 52.6482 0.777539 52.6988 0.827227 52.7419C0.842227 52.755 0.847852 52.7729 0.863789 52.785L9.30504 59.3494C9.3416 59.3785 9.38473 59.3916 9.42504 59.4132C9.44941 59.4282 9.47004 59.4479 9.49535 59.4591C9.51223 59.4675 9.5291 59.4732 9.54691 59.4788C9.65566 59.521 9.76723 59.5463 9.87973 59.5463H9.88066C9.88066 59.5463 9.88066 59.5463 9.8816 59.5463C9.9941 59.5463 10.1057 59.521 10.2144 59.4788C10.2322 59.4722 10.2491 59.4666 10.266 59.4591C10.2913 59.4479 10.3119 59.4282 10.3363 59.4132C10.3766 59.3916 10.4197 59.3785 10.4563 59.3494L18.41 53.1638C22.0241 55.4738 26.1829 56.7047 30.5 56.7047C34.8163 56.7047 38.9769 55.4738 42.59 53.1629L50.5447 59.3494C50.5813 59.3785 50.6244 59.3916 50.6647 59.4132C50.6891 59.4282 50.7097 59.4479 50.735 59.4591C50.7519 59.4675 50.7688 59.4732 50.7866 59.4788C50.8954 59.521 51.0069 59.5463 51.1194 59.5463H51.1203C51.1203 59.5463 51.1203 59.5463 51.1213 59.5463C51.2338 59.5463 51.3454 59.521 51.4541 59.4788C51.4719 59.4722 51.4888 59.4666 51.5057 59.4591C51.531 59.4479 51.5516 59.4282 51.576 59.4132C51.6163 59.3916 51.6594 59.3785 51.696 59.3494L60.1372 52.785C60.1532 52.7729 60.1588 52.755 60.1738 52.7419C60.2235 52.6988 60.2619 52.6472 60.3013 52.5947C60.336 52.5479 60.3716 52.5047 60.3969 52.4541C60.4222 52.4035 60.4344 52.3482 60.4504 52.2919C60.4682 52.2282 60.4841 52.1672 60.4888 52.1016C60.4897 52.0819 60.5 52.066 60.5 52.0454V42.675C60.5 42.6554 60.4897 42.6385 60.4888 42.6179C60.485 42.5775 60.4804 42.54 60.4729 42.5007ZM51.1203 37.2975L58.0335 42.675L51.1203 48.0507L44.2072 42.6732L51.1203 37.2975ZM43.6166 44.5904L50.1828 49.6979V56.6944L43.6166 51.5879V44.5904ZM52.0578 49.6979L58.6241 44.5913V51.5879L52.0578 56.6944V49.6979ZM30.5 2.57723L37.4132 7.95286L30.5 13.3294L23.5869 7.95379L30.5 2.57723ZM22.9963 14.3579C22.9963 14.3569 22.9963 14.355 22.9963 14.3541V9.86817L29.5625 14.9757V21.9732L22.9963 16.8657V14.3579ZM31.4375 14.9757L38.0038 9.86911V14.3325V14.3804V16.8675L31.4375 21.9732V14.9757ZM16.7929 42.676L9.87973 48.0516L2.9666 42.6741L9.87973 37.2985L16.7929 42.676ZM2.37598 44.5904L8.94223 49.6979V56.6944L2.37598 51.5879V44.5904ZM10.8172 49.6979L17.3835 44.5913V51.5879L10.8172 56.6944V49.6979ZM19.2585 51.4847V42.675C19.2585 42.6554 19.2482 42.6385 19.2472 42.6179C19.2444 42.5775 19.2388 42.54 19.2313 42.5007C19.2229 42.4575 19.2116 42.4163 19.1975 42.3741C19.1835 42.3357 19.1713 42.3 19.1535 42.2635C19.1357 42.2297 19.115 42.1988 19.0944 42.166C19.0794 42.1444 19.0766 42.1191 19.0607 42.0985C19.0485 42.0825 19.0307 42.0769 19.0175 42.0619C18.9904 42.03 18.9613 42.0029 18.9294 41.9747C18.9163 41.9625 18.9097 41.9475 18.8966 41.9363L10.4554 35.37C10.4357 35.3541 10.4113 35.3513 10.3916 35.3382C10.3382 35.3025 10.2838 35.2791 10.2247 35.2547C10.1675 35.2322 10.1141 35.2107 10.055 35.1985C10.0044 35.1891 9.95566 35.1863 9.90316 35.1854C9.88816 34.86 9.87504 34.5329 9.87504 34.2057C9.87504 26.4047 14.2457 19.3435 21.1213 15.8344V17.3232C21.1213 17.3429 21.1316 17.3597 21.1335 17.3804C21.1372 17.445 21.1532 17.505 21.171 17.5679C21.1869 17.625 21.1991 17.6804 21.2254 17.7319C21.2497 17.7835 21.2844 17.8266 21.32 17.8725C21.3594 17.926 21.3979 17.9766 21.4475 18.0197C21.4625 18.0329 21.4682 18.0507 21.4841 18.0629L29.9254 24.6291C29.9629 24.6582 30.005 24.6713 30.0454 24.6929C30.0697 24.7079 30.0904 24.7275 30.1157 24.7388C30.1325 24.7472 30.1494 24.7529 30.1672 24.7585C30.276 24.8007 30.3875 24.826 30.5 24.826H30.501H30.5019C30.6144 24.826 30.726 24.8007 30.8347 24.7585C30.8525 24.7519 30.8694 24.7463 30.8863 24.7388C30.9116 24.7275 30.9322 24.7079 30.9566 24.6929C30.9969 24.6713 31.0391 24.6582 31.0766 24.6291L39.5179 18.0647C39.5338 18.0525 39.5394 18.0347 39.5544 18.0216C39.6041 17.9785 39.6425 17.9269 39.6819 17.8744C39.7166 17.8275 39.7513 17.7844 39.7775 17.7338C39.8019 17.6822 39.815 17.6279 39.831 17.5716C39.8488 17.5079 39.8647 17.4469 39.8694 17.3813C39.8703 17.3616 39.8807 17.3457 39.8807 17.325V15.8344C46.7554 19.3454 51.125 26.4047 51.125 34.2057C51.125 34.5319 51.1119 34.8591 51.0969 35.1863C51.0444 35.1872 50.9966 35.19 50.946 35.1994C50.8869 35.2116 50.8325 35.2322 50.7754 35.2557C50.7172 35.2791 50.6629 35.3035 50.6104 35.3382C50.5897 35.3522 50.5644 35.356 50.5447 35.371L42.1035 41.9354C42.0875 41.9475 42.0819 41.9654 42.0669 41.9785C42.0379 42.0038 42.0107 42.03 41.9844 42.0591C41.9713 42.0741 41.9525 42.0807 41.9394 42.0975C41.9235 42.1182 41.9197 42.1435 41.9057 42.1641C41.8841 42.1988 41.8616 42.2297 41.8447 42.2663C41.8279 42.301 41.8166 42.3347 41.8035 42.3713C41.7885 42.4135 41.7782 42.4529 41.7697 42.496C41.7613 42.5372 41.7557 42.5766 41.7528 42.6188C41.7519 42.6385 41.7416 42.6544 41.7416 42.675V51.4838C38.3947 53.6682 34.521 54.8307 30.5 54.8307C26.4791 54.8307 22.6072 53.6682 19.2585 51.4847Z" fill="white"/>
<path d="M60.4729 42.5007C60.4644 42.4575 60.4532 42.4163 60.4391 42.3741C60.425 42.3357 60.4129 42.3 60.395 42.2635C60.3772 42.2297 60.3566 42.1988 60.336 42.166C60.321 42.1444 60.3182 42.1191 60.3022 42.0985C60.29 42.0825 60.2722 42.0769 60.26 42.0619C60.2319 42.03 60.2029 42.0029 60.171 41.9747C60.1579 41.9625 60.1513 41.9475 60.1382 41.9363L52.8932 36.301C52.9579 35.6054 53 34.9032 53 34.2057C53 25.38 47.8654 17.4329 39.8788 13.7644V7.95192C39.8788 7.93223 39.8685 7.91629 39.8675 7.89661C39.8647 7.85536 39.8591 7.81692 39.8516 7.77661C39.8432 7.73348 39.8319 7.69317 39.8179 7.65098C39.8047 7.61254 39.7925 7.57692 39.7738 7.54129C39.7569 7.50661 39.7354 7.47567 39.7147 7.44379C39.6997 7.42223 39.6969 7.39692 39.681 7.37629C39.6688 7.36036 39.651 7.35473 39.6379 7.33973C39.6107 7.30786 39.5816 7.28067 39.5497 7.25254C39.5366 7.24036 39.53 7.22536 39.5169 7.21411L31.0757 0.649731C31.056 0.634731 31.0325 0.630981 31.0129 0.618794C30.9585 0.582231 30.9022 0.556919 30.8422 0.532544C30.786 0.510981 30.7344 0.489419 30.6763 0.478169C30.6182 0.467856 30.56 0.466919 30.5 0.466919C30.441 0.466919 30.3829 0.467856 30.3238 0.479106C30.2657 0.490356 30.2141 0.511919 30.1579 0.534419C30.0988 0.557856 30.0425 0.583169 29.9882 0.618794C29.9675 0.632856 29.9432 0.635669 29.9244 0.650669L21.4832 7.21504C21.4672 7.22723 21.4616 7.24504 21.4466 7.25817C21.4175 7.28348 21.3904 7.30973 21.365 7.33786C21.351 7.35379 21.3322 7.36036 21.3191 7.37723C21.3022 7.39786 21.2994 7.42317 21.2854 7.44473C21.2638 7.47848 21.2413 7.51036 21.2244 7.54598C21.2075 7.57973 21.1963 7.61348 21.1832 7.65004C21.1682 7.69223 21.1569 7.73348 21.1485 7.77754C21.141 7.81786 21.1354 7.85723 21.1325 7.89848C21.1316 7.91817 21.1213 7.93411 21.1213 7.95473V13.7654C13.1347 17.4319 8.00004 25.3791 8.00004 34.2057C8.00004 34.9069 8.04223 35.6082 8.10598 36.301L0.862852 41.9344C0.846914 41.9466 0.841289 41.9644 0.826289 41.9775C0.797227 42.0029 0.770039 42.0291 0.743789 42.0582C0.730664 42.0732 0.711914 42.0797 0.698789 42.0966C0.682852 42.1172 0.679102 42.1425 0.665039 42.1632C0.643477 42.1979 0.620977 42.2288 0.604102 42.2654C0.587227 42.3 0.575977 42.3338 0.562852 42.3704C0.547852 42.4125 0.537539 42.4519 0.529102 42.495C0.520664 42.5363 0.515039 42.5757 0.512227 42.6179C0.511289 42.6375 0.500977 42.6535 0.500977 42.6741V52.0454C0.500977 52.065 0.511289 52.0819 0.512227 52.1016C0.516914 52.1672 0.532852 52.2282 0.550664 52.2919C0.566602 52.3482 0.578789 52.4025 0.604102 52.4541C0.629414 52.5057 0.664102 52.5488 0.699727 52.5947C0.739102 52.6482 0.777539 52.6988 0.827227 52.7419C0.842227 52.755 0.847852 52.7729 0.863789 52.785L9.30504 59.3494C9.3416 59.3785 9.38473 59.3916 9.42504 59.4132C9.44941 59.4282 9.47004 59.4479 9.49535 59.4591C9.51223 59.4675 9.5291 59.4732 9.54691 59.4788C9.65566 59.521 9.76723 59.5463 9.87973 59.5463H9.88066C9.88066 59.5463 9.88066 59.5463 9.8816 59.5463C9.9941 59.5463 10.1057 59.521 10.2144 59.4788C10.2322 59.4722 10.2491 59.4666 10.266 59.4591C10.2913 59.4479 10.3119 59.4282 10.3363 59.4132C10.3766 59.3916 10.4197 59.3785 10.4563 59.3494L18.41 53.1638C22.0241 55.4738 26.1829 56.7047 30.5 56.7047C34.8163 56.7047 38.9769 55.4738 42.59 53.1629L50.5447 59.3494C50.5813 59.3785 50.6244 59.3916 50.6647 59.4132C50.6891 59.4282 50.7097 59.4479 50.735 59.4591C50.7519 59.4675 50.7688 59.4732 50.7866 59.4788C50.8954 59.521 51.0069 59.5463 51.1194 59.5463H51.1203C51.1203 59.5463 51.1203 59.5463 51.1213 59.5463C51.2338 59.5463 51.3454 59.521 51.4541 59.4788C51.4719 59.4722 51.4888 59.4666 51.5057 59.4591C51.531 59.4479 51.5516 59.4282 51.576 59.4132C51.6163 59.3916 51.6594 59.3785 51.696 59.3494L60.1372 52.785C60.1532 52.7729 60.1588 52.755 60.1738 52.7419C60.2235 52.6988 60.2619 52.6472 60.3013 52.5947C60.336 52.5479 60.3716 52.5047 60.3969 52.4541C60.4222 52.4035 60.4344 52.3482 60.4504 52.2919C60.4682 52.2282 60.4841 52.1672 60.4888 52.1016C60.4897 52.0819 60.5 52.066 60.5 52.0454V42.675C60.5 42.6554 60.4897 42.6385 60.4888 42.6179C60.485 42.5775 60.4804 42.54 60.4729 42.5007ZM51.1203 37.2975L58.0335 42.675L51.1203 48.0507L44.2072 42.6732L51.1203 37.2975ZM43.6166 44.5904L50.1828 49.6979V56.6944L43.6166 51.5879V44.5904ZM52.0578 49.6979L58.6241 44.5913V51.5879L52.0578 56.6944V49.6979ZM30.5 2.57723L37.4132 7.95286L30.5 13.3294L23.5869 7.95379L30.5 2.57723ZM22.9963 14.3579C22.9963 14.3569 22.9963 14.355 22.9963 14.3541V9.86817L29.5625 14.9757V21.9732L22.9963 16.8657V14.3579ZM31.4375 14.9757L38.0038 9.86911V14.3325V14.3804V16.8675L31.4375 21.9732V14.9757ZM16.7929 42.676L9.87973 48.0516L2.9666 42.6741L9.87973 37.2985L16.7929 42.676ZM2.37598 44.5904L8.94223 49.6979V56.6944L2.37598 51.5879V44.5904ZM10.8172 49.6979L17.3835 44.5913V51.5879L10.8172 56.6944V49.6979ZM19.2585 51.4847V42.675C19.2585 42.6554 19.2482 42.6385 19.2472 42.6179C19.2444 42.5775 19.2388 42.54 19.2313 42.5007C19.2229 42.4575 19.2116 42.4163 19.1975 42.3741C19.1835 42.3357 19.1713 42.3 19.1535 42.2635C19.1357 42.2297 19.115 42.1988 19.0944 42.166C19.0794 42.1444 19.0766 42.1191 19.0607 42.0985C19.0485 42.0825 19.0307 42.0769 19.0175 42.0619C18.9904 42.03 18.9613 42.0029 18.9294 41.9747C18.9163 41.9625 18.9097 41.9475 18.8966 41.9363L10.4554 35.37C10.4357 35.3541 10.4113 35.3513 10.3916 35.3382C10.3382 35.3025 10.2838 35.2791 10.2247 35.2547C10.1675 35.2322 10.1141 35.2107 10.055 35.1985C10.0044 35.1891 9.95566 35.1863 9.90316 35.1854C9.88816 34.86 9.87504 34.5329 9.87504 34.2057C9.87504 26.4047 14.2457 19.3435 21.1213 15.8344V17.3232C21.1213 17.3429 21.1316 17.3597 21.1335 17.3804C21.1372 17.445 21.1532 17.505 21.171 17.5679C21.1869 17.625 21.1991 17.6804 21.2254 17.7319C21.2497 17.7835 21.2844 17.8266 21.32 17.8725C21.3594 17.926 21.3979 17.9766 21.4475 18.0197C21.4625 18.0329 21.4682 18.0507 21.4841 18.0629L29.9254 24.6291C29.9629 24.6582 30.005 24.6713 30.0454 24.6929C30.0697 24.7079 30.0904 24.7275 30.1157 24.7388C30.1325 24.7472 30.1494 24.7529 30.1672 24.7585C30.276 24.8007 30.3875 24.826 30.5 24.826H30.501H30.5019C30.6144 24.826 30.726 24.8007 30.8347 24.7585C30.8525 24.7519 30.8694 24.7463 30.8863 24.7388C30.9116 24.7275 30.9322 24.7079 30.9566 24.6929C30.9969 24.6713 31.0391 24.6582 31.0766 24.6291L39.5179 18.0647C39.5338 18.0525 39.5394 18.0347 39.5544 18.0216C39.6041 17.9785 39.6425 17.9269 39.6819 17.8744C39.7166 17.8275 39.7513 17.7844 39.7775 17.7338C39.8019 17.6822 39.815 17.6279 39.831 17.5716C39.8488 17.5079 39.8647 17.4469 39.8694 17.3813C39.8703 17.3616 39.8807 17.3457 39.8807 17.325V15.8344C46.7554 19.3454 51.125 26.4047 51.125 34.2057C51.125 34.5319 51.1119 34.8591 51.0969 35.1863C51.0444 35.1872 50.9966 35.19 50.946 35.1994C50.8869 35.2116 50.8325 35.2322 50.7754 35.2557C50.7172 35.2791 50.6629 35.3035 50.6104 35.3382C50.5897 35.3522 50.5644 35.356 50.5447 35.371L42.1035 41.9354C42.0875 41.9475 42.0819 41.9654 42.0669 41.9785C42.0379 42.0038 42.0107 42.03 41.9844 42.0591C41.9713 42.0741 41.9525 42.0807 41.9394 42.0975C41.9235 42.1182 41.9197 42.1435 41.9057 42.1641C41.8841 42.1988 41.8616 42.2297 41.8447 42.2663C41.8279 42.301 41.8166 42.3347 41.8035 42.3713C41.7885 42.4135 41.7782 42.4529 41.7697 42.496C41.7613 42.5372 41.7557 42.5766 41.7528 42.6188C41.7519 42.6385 41.7416 42.6544 41.7416 42.675V51.4838C38.3947 53.6682 34.521 54.8307 30.5 54.8307C26.4791 54.8307 22.6072 53.6682 19.2585 51.4847Z" stroke="white" stroke-width="0.6" mask="url(#path-1-outside-1)"/>
</g>
<defs>
<clipPath id="clip0">
<rect width="60" height="60" fill="white" transform="translate(0.5)"/>
</clipPath>
</defs>
</svg>
