<svg width="61" height="56" viewBox="0 0 61 56" fill="none" xmlns="http://www.w3.org/2000/svg">
<path d="M60.3335 29.1203C60.3335 24.3504 55.8902 20.1897 48.892 17.5254C49.0388 16.3732 49.1494 15.2384 49.18 14.1469C49.3707 7.62409 47.4464 3.01673 43.766 1.17448C42.6593 0.620383 41.4297 0.339111 40.1108 0.339111C36.629 0.339111 32.6538 2.34798 28.772 5.78914C24.5468 3.16017 20.4229 1.67455 16.9243 1.67455C14.6021 1.67455 12.6504 2.31932 11.1236 3.5915C7.66518 6.47593 7.16111 12.0593 9.16404 18.6329C3.68866 21.2778 0.333496 24.9717 0.333496 29.1203C0.333496 33.8436 4.68676 37.9709 11.5663 40.6406C11.539 41.0432 11.499 41.4567 11.487 41.8513C11.2969 48.375 13.2212 52.9823 16.901 54.8265C18.0073 55.3812 19.236 55.6613 20.5555 55.6613C24.5754 55.6613 29.2506 52.9969 33.6806 48.5258C37.2731 50.4953 40.7375 51.5968 43.742 51.5968C46.0649 51.5968 48.0173 50.9515 49.5441 49.6792C52.1885 47.4737 53.0953 43.6838 52.4899 39.0885C57.3679 36.4879 60.3335 33.0075 60.3335 29.1203ZM40.1108 3.07006C41.0002 3.07006 41.8176 3.25278 42.5418 3.61479C45.1795 4.93562 46.6063 8.74552 46.449 14.0663C46.425 14.8997 46.3543 15.7599 46.2569 16.6339C44.2526 16.0305 42.0951 15.5332 39.7974 15.171C37.0104 12.1059 34.05 9.46224 31.0897 7.34533C34.2661 4.63767 37.4198 3.07006 40.1108 3.07006ZM15.9523 31.9607C16.9151 33.3249 17.9378 34.6878 19.0599 36.0345C20.4282 37.6747 21.8523 39.2071 23.3072 40.6326C20.1089 40.2432 17.1317 39.6017 14.4901 38.7563C14.7695 36.5787 15.2588 34.2983 15.9523 31.9607ZM12.5945 20.1444C14.4887 19.421 16.6036 18.8116 18.8813 18.3355C18.3052 19.3402 17.7424 20.3645 17.2098 21.4279C16.4904 22.8647 15.8496 24.3122 15.2576 25.7572C14.1854 23.8435 13.3032 21.9606 12.5945 20.1444ZM21.1589 34.2849C19.6293 32.4501 18.2652 30.5697 17.0457 28.6882C17.7857 26.6813 18.6479 24.659 19.6526 22.65C20.5187 20.9204 21.4582 19.2749 22.441 17.7081C24.9508 17.3627 27.6031 17.1747 30.3341 17.1747C33.1378 17.1747 35.8609 17.3741 38.4292 17.7374C38.7933 18.1495 39.1547 18.5615 39.5093 18.9883C41.3003 21.1359 42.8857 23.3455 44.2487 25.5451C43.3965 28.1247 42.3163 30.7485 41.0149 33.3474C39.688 35.9999 38.1972 38.4708 36.6157 40.7178C34.5888 40.9365 32.4912 41.0659 30.3329 41.0659C29.464 41.0659 28.6066 41.0432 27.7571 41.0072C25.4835 39.0456 23.2452 36.7892 21.1589 34.2849ZM42.6206 18.5155C43.7407 18.7708 44.8167 19.0562 45.845 19.3742C45.6809 20.2577 45.4835 21.1538 45.2541 22.0619C44.4434 20.8752 43.5527 19.6924 42.6206 18.5155ZM43.458 34.5704C44.4368 32.6126 45.2876 30.6418 46.0291 28.6762C47.6719 31.7952 48.8414 34.8198 49.4574 37.5427C46.8384 38.6843 43.6993 39.5937 40.2456 40.2058C41.3816 38.4322 42.4646 36.5546 43.458 34.5704ZM29.0546 9.25428C31.2229 10.7679 33.4098 12.5921 35.5275 14.6704C33.8407 14.5311 32.1137 14.4437 30.3355 14.4437C28.3112 14.4437 26.3436 14.5417 24.4426 14.7211C25.9236 12.668 27.4785 10.8372 29.0546 9.25428ZM12.8732 5.6891C13.896 4.83706 15.259 4.40562 16.9244 4.40562C19.7502 4.40562 23.1579 5.61716 26.715 7.74137C24.6588 9.85634 22.6625 12.3693 20.8122 15.181C17.4558 15.713 14.3834 16.5219 11.6904 17.5553C10.0928 12.226 10.3442 7.79744 12.8732 5.6891ZM11.8637 37.8028C6.49636 35.6065 3.06456 32.5061 3.06456 29.1203C3.06456 26.1325 5.74618 23.3655 10.0655 21.2439C11.049 23.7662 12.3731 26.3933 14.0148 29.0444C12.9891 32.046 12.2698 34.9957 11.8637 37.8028ZM20.5569 52.9274C19.6682 52.9274 18.8501 52.7447 18.1259 52.3833C15.4883 51.0631 14.0641 47.2519 14.218 41.9299C14.2207 41.8086 14.2373 41.6779 14.2427 41.5578C17.9052 42.678 22.1125 43.422 26.6731 43.6834C28.2013 44.957 29.7442 46.0931 31.2777 47.0867C27.5458 50.7418 23.73 52.9274 20.5569 52.9274ZM33.1939 45.0624C32.5539 44.6597 31.9111 44.2328 31.2656 43.7742C32.3231 43.7596 33.3646 43.7183 34.3914 43.6529C33.9941 44.1397 33.5966 44.609 33.1939 45.0624ZM47.7958 47.5829C46.7731 48.4335 45.4116 48.8656 43.7434 48.8656C41.3576 48.8656 38.556 48.0028 35.6009 46.4573C36.461 45.4678 37.3078 44.4143 38.1305 43.2981C42.5579 42.7354 46.5584 41.7112 49.9014 40.3178C50.1909 43.5329 49.5481 46.1212 47.7958 47.5829ZM51.9672 36.2719C51.1136 32.8155 49.5015 29.0257 47.2185 25.1697C47.7226 23.5175 48.1305 21.8887 48.4439 20.2931C54.0181 22.4974 57.6025 25.6611 57.6025 29.1203C57.6025 31.778 55.4743 34.2597 51.9672 36.2719Z" fill="white"/>
<path d="M30.3343 22.4974C33.0793 22.4974 35.3063 24.7231 35.3063 27.4694C35.3063 30.2151 33.0793 32.4409 30.3343 32.4409C27.5879 32.4409 25.3623 30.2152 25.3623 27.4694C25.3623 24.7231 27.5879 22.4974 30.3343 22.4974Z" fill="white"/>
</svg>
