<svg width="61" height="60" viewBox="0 0 61 60" fill="none" xmlns="http://www.w3.org/2000/svg">
<path d="M26.9258 28.8281H11.5742C10.927 28.8281 10.4023 29.3528 10.4023 30C10.4023 30.6472 10.927 31.1719 11.5742 31.1719H26.9258C27.573 31.1719 28.0977 30.6472 28.0977 30C28.0977 29.3528 27.573 28.8281 26.9258 28.8281Z" fill="white"/>
<path d="M36.7695 26.4844C34.831 26.4844 33.2539 28.0615 33.2539 30C33.2539 31.9385 34.831 33.5156 36.7695 33.5156C38.708 33.5156 40.2852 31.9385 40.2852 30C40.2852 28.0615 38.708 26.4844 36.7695 26.4844ZM36.7695 31.1719C36.1234 31.1719 35.5977 30.6462 35.5977 30C35.5977 29.3538 36.1234 28.8281 36.7695 28.8281C37.4157 28.8281 37.9414 29.3538 37.9414 30C37.9414 30.6462 37.4158 31.1719 36.7695 31.1719Z" fill="white"/>
<path d="M47.082 26.4844C45.1435 26.4844 43.5664 28.0615 43.5664 30C43.5664 31.9385 45.1435 33.5156 47.082 33.5156C49.0205 33.5156 50.5977 31.9385 50.5977 30C50.5977 28.0615 49.0205 26.4844 47.082 26.4844ZM47.082 31.1719C46.4359 31.1719 45.9102 30.6462 45.9102 30C45.9102 29.3538 46.4359 28.8281 47.082 28.8281C47.7282 28.8281 48.2539 29.3538 48.2539 30C48.2539 30.6462 47.7282 31.1719 47.082 31.1719Z" fill="white"/>
<path d="M53 17.3438C54.9385 17.3438 56.5156 15.7666 56.5156 13.8281V3.51562C56.5156 1.57711 54.9385 0 53 0H8C6.06148 0 4.48438 1.57711 4.48438 3.51562V13.8281C4.48438 15.7666 6.06148 17.3438 8 17.3438H8.23438V21.3281H8C6.06148 21.3281 4.48438 22.9052 4.48438 24.8438V35.1562C4.48438 37.0948 6.06148 38.6719 8 38.6719H8.23438V42.6562H8C6.06148 42.6562 4.48438 44.2334 4.48438 46.1719V56.4844C4.48438 58.4229 6.06148 60 8 60H53C54.9385 60 56.5156 58.4229 56.5156 56.4844V46.1719C56.5156 44.2334 54.9385 42.6562 53 42.6562H52.7656V38.6719H53C54.9385 38.6719 56.5156 37.0948 56.5156 35.1562V24.8438C56.5156 22.9052 54.9385 21.3281 53 21.3281H52.7656V17.3438H53ZM6.82812 13.8281V3.51562C6.82812 2.86945 7.35383 2.34375 8 2.34375H53C53.6462 2.34375 54.1719 2.86945 54.1719 3.51562V13.8281C54.1719 14.4743 53.6462 15 53 15H8C7.35383 15 6.82812 14.4743 6.82812 13.8281ZM54.1719 46.1719V56.4844C54.1719 57.1305 53.6462 57.6562 53 57.6562H8C7.35383 57.6562 6.82812 57.1305 6.82812 56.4844V46.1719C6.82812 45.5257 7.35383 45 8 45H53C53.6462 45 54.1719 45.5257 54.1719 46.1719ZM54.1719 24.8438V35.1562C54.1719 35.8024 53.6462 36.3281 53 36.3281H35.7808C35.1336 36.3281 34.6089 36.8528 34.6089 37.5C34.6089 38.1472 35.1336 38.6719 35.7808 38.6719H50.4219V42.6562H10.5781V38.6719H25.2339C25.8812 38.6719 26.4058 38.1472 26.4058 37.5C26.4058 36.8528 25.8812 36.3281 25.2339 36.3281H8C7.35383 36.3281 6.82812 35.8024 6.82812 35.1562V24.8438C6.82812 24.1976 7.35383 23.6719 8 23.6719H53C53.6462 23.6719 54.1719 24.1976 54.1719 24.8438ZM50.4219 21.3281H10.5781V17.3438H50.4219V21.3281Z" fill="white"/>
<path d="M11.5742 9.84375H26.9258C27.573 9.84375 28.0977 9.3191 28.0977 8.67188C28.0977 8.02465 27.573 7.5 26.9258 7.5H11.5742C10.927 7.5 10.4023 8.02465 10.4023 8.67188C10.4023 9.3191 10.927 9.84375 11.5742 9.84375Z" fill="white"/>
<path d="M36.7695 12.1875C38.708 12.1875 40.2852 10.6104 40.2852 8.67188C40.2852 6.73336 38.708 5.15625 36.7695 5.15625C34.831 5.15625 33.2539 6.73336 33.2539 8.67188C33.2539 10.6104 34.831 12.1875 36.7695 12.1875ZM36.7695 7.5C37.4157 7.5 37.9414 8.0257 37.9414 8.67188C37.9414 9.31805 37.4157 9.84375 36.7695 9.84375C36.1234 9.84375 35.5977 9.31805 35.5977 8.67188C35.5977 8.0257 36.1234 7.5 36.7695 7.5Z" fill="white"/>
<path d="M47.082 12.1875C49.0205 12.1875 50.5977 10.6104 50.5977 8.67188C50.5977 6.73336 49.0205 5.15625 47.082 5.15625C45.1435 5.15625 43.5664 6.73336 43.5664 8.67188C43.5664 10.6104 45.1435 12.1875 47.082 12.1875ZM47.082 7.5C47.7282 7.5 48.2539 8.0257 48.2539 8.67188C48.2539 9.31805 47.7282 9.84375 47.082 9.84375C46.4359 9.84375 45.9102 9.31805 45.9102 8.67188C45.9102 8.0257 46.4359 7.5 47.082 7.5Z" fill="white"/>
<path d="M26.9258 50.1562H11.5742C10.927 50.1562 10.4023 50.6809 10.4023 51.3281C10.4023 51.9754 10.927 52.5 11.5742 52.5H26.9258C27.573 52.5 28.0977 51.9754 28.0977 51.3281C28.0977 50.6809 27.573 50.1562 26.9258 50.1562Z" fill="white"/>
<path d="M36.7695 47.8125C34.831 47.8125 33.2539 49.3896 33.2539 51.3281C33.2539 53.2666 34.831 54.8438 36.7695 54.8438C38.708 54.8438 40.2852 53.2666 40.2852 51.3281C40.2852 49.3896 38.708 47.8125 36.7695 47.8125ZM36.7695 52.5C36.1234 52.5 35.5977 51.9743 35.5977 51.3281C35.5977 50.682 36.1234 50.1562 36.7695 50.1562C37.4157 50.1562 37.9414 50.682 37.9414 51.3281C37.9414 51.9743 37.4158 52.5 36.7695 52.5Z" fill="white"/>
<path d="M47.082 47.8125C45.1435 47.8125 43.5664 49.3896 43.5664 51.3281C43.5664 53.2666 45.1435 54.8438 47.082 54.8438C49.0205 54.8438 50.5977 53.2666 50.5977 51.3281C50.5977 49.3896 49.0205 47.8125 47.082 47.8125ZM47.082 52.5C46.4359 52.5 45.9102 51.9743 45.9102 51.3281C45.9102 50.682 46.4359 50.1562 47.082 50.1562C47.7282 50.1562 48.2539 50.682 48.2539 51.3281C48.2539 51.9743 47.7282 52.5 47.082 52.5Z" fill="white"/>
<path d="M30.5068 36.3352C30.1986 36.3352 29.8975 36.4606 29.6783 36.6786C29.4604 36.8965 29.335 37.1989 29.335 37.5071C29.335 37.8165 29.4604 38.1176 29.6783 38.3356C29.8963 38.5547 30.1986 38.679 30.5068 38.679C30.815 38.679 31.1174 38.5547 31.3354 38.3356C31.5545 38.1176 31.6787 37.8165 31.6787 37.5071C31.6787 37.1989 31.5545 36.8965 31.3354 36.6786C31.1174 36.4606 30.815 36.3352 30.5068 36.3352Z" fill="white"/>
</svg>
