<svg width="58" height="58" viewBox="0 0 58 58" fill="none" xmlns="http://www.w3.org/2000/svg">
<path d="M46.4626 18.4559L40.5001 12.4934C40.3773 12.3696 40.2223 12.2824 40.0526 12.2418C39.883 12.2013 39.7053 12.2088 39.5397 12.2636C39.3741 12.3185 39.2271 12.4185 39.1152 12.5523C39.0033 12.6861 38.931 12.8485 38.9064 13.0213C38.8078 13.7106 38.5192 14.3589 38.0729 14.8935C37.6267 15.4281 37.0404 15.8278 36.3797 16.048C35.7191 16.2682 35.0102 16.3 34.3324 16.14C33.6547 15.98 33.0349 15.6344 32.5425 15.142C32.0501 14.6496 31.7045 14.0298 31.5445 13.3521C31.3845 12.6743 31.4163 11.9654 31.6365 11.3048C31.8566 10.6441 32.2564 10.0578 32.791 9.61156C33.3256 9.1653 33.9739 8.87671 34.6632 8.77813C34.8359 8.7535 34.9984 8.68116 35.1322 8.56927C35.266 8.45738 35.366 8.31036 35.4208 8.14475C35.4757 7.97914 35.4832 7.80152 35.4426 7.63186C35.402 7.46219 35.3149 7.30722 35.1911 7.18437L29.2285 1.22187C29.0527 1.04612 28.8143 0.947388 28.5657 0.947388C28.3171 0.947388 28.0787 1.04612 27.9029 1.22187L22.7251 6.39781C22.4702 5.44361 21.9685 4.57336 21.2705 3.87457C20.5725 3.17578 19.7028 2.67309 18.7489 2.41706C17.795 2.16102 16.7905 2.16067 15.8364 2.41603C14.8823 2.67139 14.0123 3.17346 13.3138 3.87175C12.6153 4.57005 12.113 5.43994 11.8574 6.39396C11.6018 7.34798 11.6019 8.35249 11.8576 9.30647C12.1134 10.2604 12.6159 11.1303 13.3145 11.8284C14.0131 12.5266 14.8832 13.0285 15.8373 13.2838L10.6651 18.4559C10.4894 18.6317 10.3906 18.8702 10.3906 19.1187C10.3906 19.3673 10.4894 19.6058 10.6651 19.7816L15.8392 24.9622C14.7034 25.2673 13.6918 25.9208 12.9466 26.8307C12.2014 27.7406 11.7602 28.8611 11.685 30.0348C11.6098 31.2085 11.9043 32.3762 12.5272 33.3738C13.1501 34.3714 14.07 35.1486 15.1576 35.5962L12.9685 41.9103C12.6777 42.5655 12.5411 43.2786 12.569 43.9948C12.597 44.7111 12.7888 45.4114 13.1298 46.0419L16.4204 53.8231C16.4326 53.8531 16.4467 53.8822 16.4626 53.9103C16.6931 54.3327 16.8133 54.8063 16.8123 55.2875V56.1875C16.8123 56.4361 16.9111 56.6746 17.0869 56.8504C17.2627 57.0262 17.5012 57.125 17.7498 57.125C17.9984 57.125 18.2369 57.0262 18.4127 56.8504C18.5885 56.6746 18.6873 56.4361 18.6873 56.1875V55.2875C18.6863 54.5076 18.4931 53.74 18.1248 53.0525L14.8332 45.2712C14.8202 45.2391 14.8052 45.2078 14.7882 45.1775C14.5734 44.7853 14.4539 44.3481 14.4396 43.9011C14.4253 43.4542 14.5164 43.0101 14.7057 42.605L16.9989 36.005C17.0973 36.005 17.1939 36.0191 17.2932 36.0191C18.5306 36.0201 19.7336 35.6125 20.7154 34.8594C21.6972 34.1063 22.4027 33.05 22.7223 31.8547L24.3123 33.4381V43.0625C24.3123 43.3111 24.4111 43.5496 24.5869 43.7254C24.7627 43.9012 25.0012 44 25.2498 44C25.4984 44 25.7369 43.9012 25.9127 43.7254C26.0885 43.5496 26.1873 43.3111 26.1873 43.0625V29.9375C26.1873 29.1916 26.4836 28.4762 27.0111 27.9488C27.5385 27.4213 28.2539 27.125 28.9998 27.125C29.7457 27.125 30.4611 27.4213 30.9885 27.9488C31.516 28.4762 31.8123 29.1916 31.8123 29.9375V41.2916C31.814 42.6013 32.1188 43.8928 32.7029 45.065L33.0461 45.7531C33.4997 46.6648 33.7358 47.6692 33.7358 48.6875C33.7358 49.7058 33.4997 50.7102 33.0461 51.6219L32.1086 53.4969C31.9139 53.8877 31.8125 54.3184 31.8123 54.755V56.1875C31.8123 56.4361 31.9111 56.6746 32.0869 56.8504C32.2627 57.0262 32.5012 57.125 32.7498 57.125C32.9984 57.125 33.2369 57.0262 33.4127 56.8504C33.5885 56.6746 33.6873 56.4361 33.6873 56.1875V54.755C33.6863 54.61 33.7184 54.4667 33.781 54.3359L34.7185 52.4609C35.3017 51.2887 35.6052 49.9972 35.6052 48.688C35.6052 47.3787 35.3017 46.0872 34.7185 44.915L34.3754 44.2269C34.0393 43.5518 33.8215 42.824 33.7314 42.0753C34.3403 42.6864 35.064 43.171 35.8609 43.5014C36.6578 43.8317 37.5121 44.0011 38.3748 44C39.1207 44 39.8361 43.7037 40.3635 43.1762C40.891 42.6488 41.1873 41.9334 41.1873 41.1875V35.8438C42.3973 35.5444 43.4734 34.8511 44.2463 33.8732C45.0192 32.8952 45.445 31.6881 45.4567 30.4416C45.4684 29.1952 45.0654 27.9802 44.311 26.988C43.5566 25.9957 42.4937 25.2824 41.2895 24.9603L46.4626 19.7797C46.6378 19.604 46.7362 19.3659 46.7362 19.1178C46.7362 18.8697 46.6378 18.6317 46.4626 18.4559ZM38.3748 42.125C37.1321 42.1235 35.9406 41.6292 35.0619 40.7504C34.1831 39.8717 33.6888 38.6802 33.6873 37.4375V32.5625L34.4036 31.8462C34.699 32.9565 35.3282 33.9492 36.2061 34.6903C37.084 35.4314 38.1682 35.885 39.3123 35.99V41.1875C39.3123 41.4361 39.2135 41.6746 39.0377 41.8504C38.8619 42.0262 38.6234 42.125 38.3748 42.125ZM38.5089 25.0934C38.3682 25.2325 38.2751 25.4125 38.2429 25.6078C38.2108 25.803 38.2412 26.0033 38.3298 26.1802C38.4185 26.3571 38.5608 26.5014 38.7364 26.5924C38.912 26.6835 39.112 26.7167 39.3076 26.6872C40.0865 26.577 40.8803 26.7144 41.5768 27.0802C42.2732 27.446 42.837 28.0215 43.1883 28.7253C43.5396 29.4291 43.6608 30.2256 43.5345 31.0021C43.4082 31.7785 43.041 32.4956 42.4848 33.0518C41.9285 33.6081 41.2114 33.9753 40.435 34.1016C39.6586 34.2278 38.8621 34.1067 38.1582 33.7554C37.4544 33.404 36.8789 32.8403 36.5131 32.1438C36.1474 31.4474 36.0099 30.6536 36.1201 29.8747C36.1496 29.6791 36.1164 29.4791 36.0253 29.3035C35.9343 29.1279 35.79 28.9855 35.6131 28.8969C35.4363 28.8083 35.2359 28.7778 35.0407 28.81C34.8455 28.8422 34.6654 28.9352 34.5264 29.0759L33.6873 29.9169C33.6859 29.3013 33.5634 28.692 33.3265 28.1238C33.0897 27.5556 32.7433 27.0396 32.3071 26.6053C31.8708 26.171 31.3533 25.8269 30.7841 25.5926C30.2149 25.3582 29.6051 25.2383 28.9895 25.2397C28.3739 25.241 27.7646 25.3636 27.1964 25.6004C26.6283 25.8373 26.1123 26.1837 25.6779 26.6199C24.8008 27.5009 24.3096 28.6943 24.3123 29.9375V30.7869L22.5939 29.0684C22.4548 28.9277 22.2748 28.8347 22.0795 28.8025C21.8843 28.7703 21.684 28.8008 21.5071 28.8894C21.3302 28.978 21.1859 29.1204 21.0949 29.296C21.0038 29.4716 20.9706 29.6716 21.0001 29.8672C21.1103 30.6461 20.9729 31.4399 20.6071 32.1363C20.2413 32.8328 19.6658 33.3965 18.962 33.7479C18.2582 34.0992 17.4617 34.2203 16.6852 34.0941C15.9088 33.9678 15.1917 33.6006 14.6355 33.0443C14.0792 32.4881 13.712 31.771 13.5857 30.9946C13.4595 30.2181 13.5806 29.4216 13.9319 28.7178C14.2833 28.014 14.847 27.4385 15.5435 27.0727C16.2399 26.7069 17.0337 26.5695 17.8126 26.6797C18.0083 26.7094 18.2084 26.6764 18.3842 26.5854C18.56 26.4945 18.7025 26.3502 18.7913 26.1733C18.8801 25.9963 18.9106 25.7958 18.8784 25.6005C18.8463 25.4052 18.7531 25.2251 18.6123 25.0859L12.6526 19.1187L18.6189 13.1563C18.7596 13.0172 18.8526 12.8371 18.8848 12.6419C18.917 12.4467 18.8865 12.2464 18.7979 12.0695C18.7093 11.8926 18.5669 11.7483 18.3913 11.6573C18.2157 11.5662 18.0157 11.533 17.8201 11.5625C17.0423 11.6712 16.2499 11.5329 15.5548 11.1672C14.8598 10.8015 14.2971 10.2267 13.9462 9.52407C13.5952 8.8214 13.4738 8.02629 13.599 7.25091C13.7242 6.47554 14.0897 5.75904 14.6439 5.2025C15.3586 4.52159 16.3079 4.14179 17.2951 4.14179C18.2823 4.14179 19.2316 4.52159 19.9464 5.2025C20.3566 5.61384 20.6657 6.11487 20.8492 6.66607C21.0327 7.21728 21.0857 7.80359 21.0039 8.37875C20.9744 8.57438 21.0076 8.77432 21.0986 8.94995C21.1897 9.12558 21.334 9.2679 21.5109 9.35654C21.6877 9.44518 21.8881 9.4756 22.0833 9.44344C22.2785 9.41128 22.4585 9.31819 22.5976 9.1775L28.5686 3.21312L32.7695 7.415C31.9575 7.80282 31.2503 8.37981 30.7075 9.09751C30.1646 9.81522 29.8018 10.6527 29.6497 11.5396C29.4975 12.4266 29.5603 13.3371 29.8329 14.1947C30.1055 15.0523 30.5799 15.832 31.2162 16.4683C31.8525 17.1046 32.6322 17.579 33.4898 17.8516C34.3474 18.1241 35.2579 18.187 36.1449 18.0348C37.0318 17.8826 37.8693 17.5199 38.587 16.977C39.3047 16.4342 39.8817 15.727 40.2695 14.915L44.4714 19.1159L38.5089 25.0934Z" fill="white"/>
<path d="M56.1875 20.5625H50.5625C50.3139 20.5625 50.0754 20.4637 49.8996 20.2879C49.7238 20.1121 49.625 19.8736 49.625 19.625C49.625 19.3764 49.7238 19.1379 49.8996 18.9621C50.0754 18.7863 50.3139 18.6875 50.5625 18.6875H56.1875C56.4361 18.6875 56.6746 18.7863 56.8504 18.9621C57.0262 19.1379 57.125 19.3764 57.125 19.625C57.125 19.8736 57.0262 20.1121 56.8504 20.2879C56.6746 20.4637 56.4361 20.5625 56.1875 20.5625Z" fill="white"/>
<path d="M49.5488 9.78132C49.3424 9.78131 49.1418 9.71321 48.9781 9.58757C48.8144 9.46194 48.6967 9.2858 48.6433 9.08646C48.5899 8.88713 48.6037 8.67574 48.6827 8.48507C48.7617 8.29441 48.9013 8.13513 49.08 8.03194L53.955 5.21944C54.1702 5.09708 54.4251 5.06481 54.664 5.12968C54.9029 5.19454 55.1065 5.35127 55.2303 5.56567C55.3541 5.78006 55.388 6.03471 55.3248 6.27405C55.2615 6.51339 55.1061 6.71799 54.8925 6.84319L50.0175 9.65569C49.8752 9.73831 49.7134 9.78166 49.5488 9.78132Z" fill="white"/>
<path d="M54.4195 34.1563C54.2548 34.1567 54.0931 34.1133 53.9507 34.0307L49.0757 31.2182C48.9682 31.1571 48.8739 31.0753 48.7981 30.9776C48.7224 30.8799 48.6667 30.7682 48.6343 30.6488C48.6019 30.5295 48.5934 30.405 48.6094 30.2824C48.6253 30.1598 48.6654 30.0415 48.7272 29.9344C48.789 29.8274 48.8714 29.7336 48.9696 29.6585C49.0678 29.5834 49.1799 29.5284 49.2994 29.4968C49.419 29.4652 49.5436 29.4576 49.6661 29.4743C49.7886 29.4911 49.9065 29.5319 50.0132 29.5944L54.8882 32.4069C55.0669 32.5101 55.2066 32.6694 55.2856 32.8601C55.3645 33.0507 55.3784 33.2621 55.325 33.4615C55.2716 33.6608 55.1539 33.8369 54.9901 33.9626C54.8264 34.0882 54.6258 34.1563 54.4195 34.1563Z" fill="white"/>
<path d="M7.4375 20.5625H1.8125C1.56386 20.5625 1.3254 20.4637 1.14959 20.2879C0.973772 20.1121 0.875 19.8736 0.875 19.625C0.875 19.3764 0.973772 19.1379 1.14959 18.9621C1.3254 18.7863 1.56386 18.6875 1.8125 18.6875H7.4375C7.68614 18.6875 7.9246 18.7863 8.10041 18.9621C8.27623 19.1379 8.375 19.3764 8.375 19.625C8.375 19.8736 8.27623 20.1121 8.10041 20.2879C7.9246 20.4637 7.68614 20.5625 7.4375 20.5625Z" fill="white"/>
<path d="M8.45116 9.78132C8.28655 9.78166 8.12479 9.73831 7.98241 9.65569L3.10741 6.84319C2.89384 6.71799 2.73846 6.51339 2.67519 6.27405C2.61191 6.03471 2.64587 5.78006 2.76965 5.56567C2.89344 5.35127 3.097 5.19454 3.33591 5.12968C3.57483 5.06481 3.8297 5.09708 4.04491 5.21944L8.91991 8.03194C9.09863 8.13513 9.2383 8.29441 9.31727 8.48507C9.39624 8.67574 9.41009 8.88713 9.35668 9.08646C9.30326 9.2858 9.18557 9.46194 9.02185 9.58757C8.85813 9.71321 8.65753 9.78131 8.45116 9.78132Z" fill="white"/>
<path d="M3.58053 34.1563C3.37416 34.1563 3.17356 34.0882 3.00984 33.9626C2.84612 33.8369 2.72842 33.6608 2.67501 33.4615C2.6216 33.2621 2.63545 33.0507 2.71442 32.8601C2.79339 32.6694 2.93306 32.5101 3.11178 32.4069L7.98678 29.5944C8.09344 29.5319 8.21141 29.4911 8.33391 29.4743C8.45641 29.4576 8.58101 29.4652 8.70054 29.4968C8.82007 29.5284 8.93217 29.5834 9.03038 29.6585C9.1286 29.7336 9.21098 29.8274 9.2728 29.9344C9.33462 30.0415 9.37465 30.1598 9.39059 30.2824C9.40653 30.405 9.39805 30.5295 9.36566 30.6488C9.33327 30.7682 9.27759 30.8799 9.20184 30.9776C9.12609 31.0753 9.03176 31.1571 8.92428 31.2182L4.04928 34.0307C3.9069 34.1133 3.74514 34.1567 3.58053 34.1563Z" fill="white"/>
</svg>
