<svg width="188" height="48" viewBox="0 0 188 48" fill="none" xmlns="http://www.w3.org/2000/svg">
<path d="M21.3538 23.9023C20.6746 23.9023 20.0588 23.7437 19.5066 23.4263C18.9543 23.1089 18.5132 22.6677 18.1831 22.1028C17.8594 21.5505 17.6975 20.9348 17.6975 20.2556C17.6975 19.5764 17.8594 18.9607 18.1831 18.4084C18.5068 17.8562 18.948 17.4182 19.5066 17.0945C20.0715 16.7708 20.6873 16.6089 21.3538 16.6089C22.4138 16.6089 23.2866 16.9897 23.9722 17.7515L23.0391 18.6465C22.5947 18.126 22.0361 17.8657 21.3633 17.8657C20.9253 17.8657 20.5286 17.9641 20.1731 18.1609C19.8303 18.3513 19.551 18.6306 19.3352 18.9988C19.1257 19.3606 19.021 19.7795 19.021 20.2556C19.021 20.738 19.1257 21.1602 19.3352 21.522C19.551 21.8901 19.8303 22.1694 20.1731 22.3599C20.5286 22.5566 20.9253 22.655 21.3633 22.655C22.0996 22.655 22.7153 22.3503 23.2104 21.741L24.1436 22.6265C23.8135 23.0327 23.4041 23.3501 22.9153 23.5786C22.4583 23.7944 21.9377 23.9023 21.3538 23.9023ZM28.0401 23.9023C27.4815 23.9023 27.0055 23.7881 26.6119 23.5596C26.2183 23.3311 25.9041 22.9915 25.6693 22.5408C25.4471 22.1155 25.336 21.5918 25.336 20.9697V16.7708H26.6405V21.0459C26.6405 21.541 26.7611 21.9314 27.0023 22.217C27.2498 22.509 27.5958 22.655 28.0401 22.655C28.4845 22.655 28.8304 22.509 29.078 22.217C29.3255 21.9187 29.4493 21.5283 29.4493 21.0459V16.7708H30.7537V20.9697C30.7537 21.5474 30.6427 22.0583 30.4205 22.5027C30.1983 22.9407 29.8841 23.2834 29.4779 23.531C29.0716 23.7786 28.5924 23.9023 28.0401 23.9023ZM34.4218 23.9023C33.8061 23.9023 33.2665 23.731 32.8032 23.3882C32.3398 23.0454 32.0129 22.5598 31.8224 21.9314L33.0602 21.4363C33.1554 21.8108 33.3205 22.106 33.5554 22.3218C33.7966 22.5439 34.0886 22.655 34.4313 22.655C34.717 22.655 34.9677 22.582 35.1835 22.436C35.393 22.2964 35.4977 22.0933 35.4977 21.8267C35.4977 21.5601 35.3993 21.3474 35.2026 21.1887C34.9994 21.0237 34.644 20.8459 34.1362 20.6555L33.7077 20.5032C33.2634 20.3508 32.8825 20.1128 32.5651 19.7891C32.2414 19.4526 32.0795 19.0464 32.0795 18.5703C32.0795 18.2021 32.1747 17.8721 32.3652 17.5801C32.5556 17.2817 32.8222 17.0469 33.165 16.8755C33.5204 16.6978 33.9108 16.6089 34.3361 16.6089C34.9645 16.6089 35.4628 16.7581 35.831 17.0564C36.1928 17.3547 36.4404 17.7007 36.5737 18.0942L35.4216 18.5798C35.3454 18.3577 35.2184 18.1768 35.0407 18.0371C34.8566 17.8911 34.6281 17.8181 34.3552 17.8181C34.0632 17.8181 33.8283 17.8848 33.6506 18.0181C33.4665 18.1514 33.3744 18.3259 33.3744 18.5417C33.3744 18.7512 33.4601 18.929 33.6315 19.075C33.8156 19.2273 34.1044 19.3701 34.498 19.5034L34.936 19.6462C35.5517 19.8621 36.0151 20.135 36.3261 20.4651C36.6498 20.8079 36.8117 21.2554 36.8117 21.8076C36.8117 22.271 36.6943 22.6582 36.4594 22.9692C36.2118 23.293 35.9103 23.5278 35.5549 23.6738C35.1867 23.8262 34.809 23.9023 34.4218 23.9023ZM41.4605 23.9023C40.7813 23.9023 40.1655 23.7437 39.6133 23.4263C39.0611 23.1089 38.6199 22.6677 38.2898 22.1028C37.9661 21.5505 37.8042 20.9348 37.8042 20.2556C37.8042 19.5764 37.9661 18.9607 38.2898 18.4084C38.6135 17.8562 39.0547 17.4182 39.6133 17.0945C40.1782 16.7708 40.794 16.6089 41.4605 16.6089C42.5205 16.6089 43.3933 16.9897 44.0789 17.7515L43.1458 18.6465C42.7014 18.126 42.1428 17.8657 41.47 17.8657C41.032 17.8657 40.6353 17.9641 40.2798 18.1609C39.937 18.3513 39.6577 18.6306 39.4419 18.9988C39.2324 19.3606 39.1277 19.7795 39.1277 20.2556C39.1277 20.738 39.2324 21.1602 39.4419 21.522C39.6577 21.8901 39.937 22.1694 40.2798 22.3599C40.6353 22.5566 41.032 22.655 41.47 22.655C42.2063 22.655 42.822 22.3503 43.3172 21.741L44.2503 22.6265C43.9202 23.0327 43.5108 23.3501 43.022 23.5786C42.565 23.7944 42.0445 23.9023 41.4605 23.9023Z" fill="white"/>
<path d="M43.4714 14.8381H43.8625C43.9338 14.8381 43.9963 14.8528 44.05 14.8821C44.1057 14.9124 44.1477 14.9524 44.176 15.0022C44.2063 15.0549 44.2214 15.113 44.2214 15.1765C44.2214 15.2449 44.1995 15.3064 44.1555 15.3611C44.1116 15.4148 44.0569 15.4534 43.9915 15.4768L43.99 15.4871L44.2786 15.9001V15.9119H44.0457L43.7688 15.509H43.6736V15.9119H43.4714V14.8381ZM43.8611 15.323C43.906 15.323 43.9436 15.3088 43.9739 15.2805C44.0032 15.2522 44.0178 15.2166 44.0178 15.1736C44.0178 15.1326 44.0042 15.0979 43.9768 15.0696C43.9485 15.0403 43.9109 15.0256 43.864 15.0256H43.6736V15.323H43.8611Z" fill="white"/>
<rect x="42.9" y="14.4" width="1.95" height="1.95" rx="0.975" stroke="white" stroke-width="0.3"/>
<path d="M32.3854 27.8189H32.6077V29H32.3854V27.8189ZM33.2659 29.0258C33.1617 29.0258 33.0704 28.9968 32.992 28.9388C32.9136 28.8808 32.8582 28.7986 32.826 28.6922L33.0355 28.6084C33.0516 28.6718 33.0795 28.7218 33.1193 28.7583C33.1601 28.7959 33.2095 28.8147 33.2675 28.8147C33.3159 28.8147 33.3583 28.8023 33.3948 28.7776C33.4303 28.754 33.448 28.7196 33.448 28.6745C33.448 28.6294 33.4313 28.5934 33.398 28.5666C33.3637 28.5386 33.3035 28.5085 33.2176 28.4763L33.1451 28.4505C33.0699 28.4248 33.0054 28.3845 32.9517 28.3297C32.8969 28.2728 32.8695 28.204 32.8695 28.1234C32.8695 28.0611 32.8856 28.0053 32.9179 27.9559C32.9501 27.9054 32.9952 27.8656 33.0532 27.8366C33.1134 27.8065 33.1794 27.7915 33.2514 27.7915C33.3578 27.7915 33.4421 27.8167 33.5044 27.8672C33.5656 27.9177 33.6075 27.9763 33.6301 28.0429L33.4351 28.125C33.4222 28.0875 33.4007 28.0568 33.3706 28.0332C33.3395 28.0085 33.3008 27.9961 33.2546 27.9961C33.2052 27.9961 33.1655 28.0074 33.1354 28.03C33.1042 28.0525 33.0887 28.0821 33.0887 28.1186C33.0887 28.1541 33.1032 28.1841 33.1322 28.2088C33.1633 28.2346 33.2122 28.2588 33.2788 28.2813L33.3529 28.3055C33.4571 28.342 33.5355 28.3882 33.5882 28.4441C33.643 28.5021 33.6704 28.5778 33.6704 28.6713C33.6704 28.7497 33.6505 28.8152 33.6107 28.8679C33.5688 28.9227 33.5178 28.9624 33.4577 28.9871C33.3954 29.0129 33.3314 29.0258 33.2659 29.0258ZM34.1577 28.9452C34.0611 28.8883 33.9869 28.8136 33.9354 28.7212C33.8817 28.6256 33.8548 28.5214 33.8548 28.4086C33.8548 28.2969 33.8817 28.1933 33.9354 28.0977C33.9869 28.0053 34.0611 27.9306 34.1577 27.8737C34.2512 27.8189 34.3559 27.7915 34.472 27.7915C34.588 27.7915 34.6927 27.8189 34.7862 27.8737C34.8828 27.9306 34.957 28.0053 35.0085 28.0977C35.0622 28.1933 35.0891 28.2969 35.0891 28.4086C35.0891 28.5214 35.0622 28.6256 35.0085 28.7212C34.957 28.8136 34.8828 28.8883 34.7862 28.9452C34.6949 28.9989 34.5901 29.0258 34.472 29.0258C34.3538 29.0258 34.2491 28.9989 34.1577 28.9452ZM34.6718 28.7647C34.7298 28.7325 34.7776 28.6842 34.8152 28.6197C34.8495 28.5606 34.8667 28.4903 34.8667 28.4086C34.8667 28.327 34.8495 28.2566 34.8152 28.1976C34.7786 28.1342 34.7308 28.0864 34.6718 28.0542C34.6116 28.0208 34.545 28.0042 34.472 28.0042C34.3989 28.0042 34.3328 28.0208 34.2738 28.0542C34.2158 28.0875 34.1685 28.1353 34.132 28.1976C34.0965 28.2588 34.0788 28.3292 34.0788 28.4086C34.0788 28.4881 34.0965 28.5585 34.132 28.6197C34.1696 28.6842 34.2168 28.7325 34.2738 28.7647C34.3328 28.798 34.3989 28.8147 34.472 28.8147C34.545 28.8147 34.6116 28.798 34.6718 28.7647ZM35.4331 28.4248C35.3933 28.4248 35.3595 28.4108 35.3316 28.3829C35.3036 28.3549 35.2897 28.3211 35.2897 28.2813C35.2897 28.2416 35.3036 28.2078 35.3316 28.1798C35.3595 28.1519 35.3933 28.1379 35.4331 28.1379C35.4728 28.1379 35.5067 28.1519 35.5346 28.1798C35.5636 28.2088 35.5781 28.2427 35.5781 28.2813C35.5781 28.32 35.5636 28.3539 35.5346 28.3829C35.5067 28.4108 35.4728 28.4248 35.4331 28.4248ZM35.4331 29.0097C35.3933 29.0097 35.3595 28.9957 35.3316 28.9678C35.3036 28.9398 35.2897 28.906 35.2897 28.8663C35.2897 28.8276 35.3036 28.7943 35.3316 28.7664C35.3595 28.7384 35.3933 28.7245 35.4331 28.7245C35.4728 28.7245 35.5067 28.7384 35.5346 28.7664C35.5636 28.7954 35.5781 28.8287 35.5781 28.8663C35.5781 28.9049 35.5636 28.9388 35.5346 28.9678C35.5067 28.9957 35.4728 29.0097 35.4331 29.0097ZM36.3982 28.9178L36.6302 28.5907L36.6206 28.5811C36.5959 28.5918 36.5674 28.5972 36.5352 28.5972C36.4782 28.5972 36.4234 28.5816 36.3708 28.5504C36.3171 28.5193 36.2747 28.4758 36.2435 28.4199C36.2113 28.3641 36.1952 28.3012 36.1952 28.2314C36.1952 28.1583 36.2134 28.0923 36.25 28.0332C36.2876 27.973 36.337 27.9269 36.3982 27.8946C36.4616 27.8613 36.5266 27.8447 36.5932 27.8447C36.6727 27.8447 36.743 27.8624 36.8043 27.8979C36.8666 27.9333 36.9144 27.9816 36.9477 28.0429C36.982 28.1052 36.9992 28.1707 36.9992 28.2395C36.9992 28.3114 36.9858 28.3775 36.9589 28.4376C36.9299 28.5021 36.8897 28.5703 36.8381 28.6423L36.5674 29.0322L36.3982 28.9178ZM36.7301 28.3635C36.7688 28.3281 36.7881 28.2835 36.7881 28.2298C36.7881 28.1761 36.7688 28.1315 36.7301 28.096C36.6915 28.0606 36.6474 28.0429 36.598 28.0429C36.5475 28.0429 36.5029 28.0606 36.4643 28.096C36.4256 28.1315 36.4063 28.1761 36.4063 28.2298C36.4063 28.2835 36.4256 28.3281 36.4643 28.3635C36.504 28.4 36.5486 28.4183 36.598 28.4183C36.6463 28.4183 36.6904 28.4 36.7301 28.3635ZM37.4125 28.95C37.3405 28.8985 37.2857 28.8281 37.2481 28.739C37.2084 28.6466 37.1885 28.5456 37.1885 28.436C37.1885 28.3265 37.2084 28.2255 37.2481 28.1331C37.2857 28.0439 37.3405 27.9736 37.4125 27.922C37.4834 27.8705 37.5667 27.8447 37.6623 27.8447C37.7579 27.8447 37.8411 27.8705 37.912 27.922C37.9851 27.9757 38.0404 28.0461 38.078 28.1331C38.1167 28.2233 38.136 28.3243 38.136 28.436C38.136 28.5478 38.1167 28.6487 38.078 28.739C38.0404 28.826 37.9851 28.8963 37.912 28.95C37.8422 29.0005 37.7589 29.0258 37.6623 29.0258C37.5656 29.0258 37.4823 29.0005 37.4125 28.95ZM37.8008 28.7728C37.8395 28.7395 37.869 28.6933 37.8895 28.6342C37.9099 28.5762 37.9201 28.5102 37.9201 28.436C37.9201 28.3211 37.897 28.2276 37.8508 28.1557C37.8046 28.0837 37.7418 28.0477 37.6623 28.0477C37.5849 28.0477 37.5226 28.0842 37.4753 28.1573C37.4292 28.2292 37.4061 28.3222 37.4061 28.436C37.4061 28.5102 37.4163 28.5762 37.4367 28.6342C37.4571 28.6912 37.4872 28.7374 37.5269 28.7728C37.5645 28.8061 37.6096 28.8228 37.6623 28.8228C37.717 28.8228 37.7632 28.8061 37.8008 28.7728ZM38.5589 28.95C38.487 28.8985 38.4322 28.8281 38.3946 28.739C38.3548 28.6466 38.335 28.5456 38.335 28.436C38.335 28.3265 38.3548 28.2255 38.3946 28.1331C38.4322 28.0439 38.487 27.9736 38.5589 27.922C38.6298 27.8705 38.7131 27.8447 38.8087 27.8447C38.9043 27.8447 38.9875 27.8705 39.0584 27.922C39.1315 27.9757 39.1868 28.0461 39.2244 28.1331C39.2631 28.2233 39.2824 28.3243 39.2824 28.436C39.2824 28.5478 39.2631 28.6487 39.2244 28.739C39.1868 28.826 39.1315 28.8963 39.0584 28.95C38.9886 29.0005 38.9054 29.0258 38.8087 29.0258C38.712 29.0258 38.6288 29.0005 38.5589 28.95ZM38.9473 28.7728C38.9859 28.7395 39.0155 28.6933 39.0359 28.6342C39.0563 28.5762 39.0665 28.5102 39.0665 28.436C39.0665 28.3211 39.0434 28.2276 38.9972 28.1557C38.951 28.0837 38.8882 28.0477 38.8087 28.0477C38.7313 28.0477 38.669 28.0842 38.6218 28.1573C38.5756 28.2292 38.5525 28.3222 38.5525 28.436C38.5525 28.5102 38.5627 28.5762 38.5831 28.6342C38.6035 28.6912 38.6336 28.7374 38.6733 28.7728C38.7109 28.8061 38.756 28.8228 38.8087 28.8228C38.8635 28.8228 38.9097 28.8061 38.9473 28.7728ZM39.7376 28.1541L39.5684 28.2765L39.4588 28.1105L39.7908 27.8721H39.9535V29H39.7376V28.1541ZM40.3668 28.4248C40.327 28.4248 40.2932 28.4108 40.2653 28.3829C40.2373 28.3549 40.2234 28.3211 40.2234 28.2813C40.2234 28.2416 40.2373 28.2078 40.2653 28.1798C40.2932 28.1519 40.327 28.1379 40.3668 28.1379C40.4065 28.1379 40.4404 28.1519 40.4683 28.1798C40.4973 28.2088 40.5118 28.2427 40.5118 28.2813C40.5118 28.32 40.4973 28.3539 40.4683 28.3829C40.4404 28.4108 40.4065 28.4248 40.3668 28.4248ZM40.3668 29.0097C40.327 29.0097 40.2932 28.9957 40.2653 28.9678C40.2373 28.9398 40.2234 28.906 40.2234 28.8663C40.2234 28.8276 40.2373 28.7943 40.2653 28.7664C40.2932 28.7384 40.327 28.7245 40.3668 28.7245C40.4065 28.7245 40.4404 28.7384 40.4683 28.7664C40.4973 28.7954 40.5118 28.8287 40.5118 28.8663C40.5118 28.9049 40.4973 28.9388 40.4683 28.9678C40.4404 28.9957 40.4065 29.0097 40.3668 29.0097ZM40.7204 28.8034C40.9589 28.5671 41.0959 28.4291 41.1313 28.3893C41.1732 28.3442 41.2006 28.3087 41.2135 28.283C41.2285 28.2529 41.2361 28.2201 41.2361 28.1847C41.2361 28.146 41.2216 28.1138 41.1925 28.088C41.1625 28.0611 41.1243 28.0477 41.0781 28.0477C41.0341 28.0477 40.997 28.0611 40.967 28.088C40.939 28.1127 40.9186 28.1455 40.9057 28.1863L40.7108 28.1057C40.7237 28.0638 40.7462 28.0225 40.7784 27.9816C40.8096 27.9419 40.8515 27.9091 40.9041 27.8833C40.9557 27.8576 41.0153 27.8447 41.083 27.8447C41.156 27.8447 41.221 27.8592 41.2779 27.8882C41.3338 27.9172 41.3773 27.9569 41.4085 28.0074C41.4396 28.0579 41.4552 28.1138 41.4552 28.175C41.4552 28.2975 41.3956 28.4167 41.2763 28.5327C41.2441 28.5639 41.1544 28.653 41.0072 28.8002L41.0121 28.8099H41.4697V29H40.7204V28.8034ZM41.891 28.95C41.8191 28.8985 41.7643 28.8281 41.7267 28.739C41.6869 28.6466 41.6671 28.5456 41.6671 28.436C41.6671 28.3265 41.6869 28.2255 41.7267 28.1331C41.7643 28.0439 41.8191 27.9736 41.891 27.922C41.9619 27.8705 42.0452 27.8447 42.1408 27.8447C42.2364 27.8447 42.3196 27.8705 42.3905 27.922C42.4636 27.9757 42.5189 28.0461 42.5565 28.1331C42.5952 28.2233 42.6145 28.3243 42.6145 28.436C42.6145 28.5478 42.5952 28.6487 42.5565 28.739C42.5189 28.826 42.4636 28.8963 42.3905 28.95C42.3207 29.0005 42.2375 29.0258 42.1408 29.0258C42.0441 29.0258 41.9609 29.0005 41.891 28.95ZM42.2794 28.7728C42.318 28.7395 42.3476 28.6933 42.368 28.6342C42.3884 28.5762 42.3986 28.5102 42.3986 28.436C42.3986 28.3211 42.3755 28.2276 42.3293 28.1557C42.2831 28.0837 42.2203 28.0477 42.1408 28.0477C42.0634 28.0477 42.0011 28.0842 41.9539 28.1573C41.9077 28.2292 41.8846 28.3222 41.8846 28.436C41.8846 28.5102 41.8948 28.5762 41.9152 28.6342C41.9356 28.6912 41.9657 28.7374 42.0054 28.7728C42.043 28.8061 42.0881 28.8228 42.1408 28.8228C42.1956 28.8228 42.2418 28.8061 42.2794 28.7728ZM43.0375 28.95C42.9655 28.8985 42.9107 28.8281 42.8731 28.739C42.8334 28.6466 42.8135 28.5456 42.8135 28.436C42.8135 28.3265 42.8334 28.2255 42.8731 28.1331C42.9107 28.0439 42.9655 27.9736 43.0375 27.922C43.1084 27.8705 43.1916 27.8447 43.2872 27.8447C43.3828 27.8447 43.4661 27.8705 43.537 27.922C43.61 27.9757 43.6653 28.0461 43.7029 28.1331C43.7416 28.2233 43.7609 28.3243 43.7609 28.436C43.7609 28.5478 43.7416 28.6487 43.7029 28.739C43.6653 28.826 43.61 28.8963 43.537 28.95C43.4671 29.0005 43.3839 29.0258 43.2872 29.0258C43.1905 29.0258 43.1073 29.0005 43.0375 28.95ZM43.4258 28.7728C43.4645 28.7395 43.494 28.6933 43.5144 28.6342C43.5348 28.5762 43.545 28.5102 43.545 28.436C43.545 28.3211 43.5219 28.2276 43.4757 28.1557C43.4295 28.0837 43.3667 28.0477 43.2872 28.0477C43.2099 28.0477 43.1476 28.0842 43.1003 28.1573C43.0541 28.2292 43.031 28.3222 43.031 28.436C43.031 28.5102 43.0412 28.5762 43.0616 28.6342C43.082 28.6912 43.1121 28.7374 43.1519 28.7728C43.1895 28.8061 43.2346 28.8228 43.2872 28.8228C43.342 28.8228 43.3882 28.8061 43.4258 28.7728ZM44.15 28.9823C44.091 28.9543 44.0426 28.9135 44.005 28.8598C43.9707 28.8093 43.9535 28.7513 43.9535 28.6858C43.9535 28.6256 43.9696 28.5714 44.0018 28.523C44.0351 28.4736 44.0765 28.436 44.1259 28.4103V28.3974C44.0883 28.3716 44.0561 28.3383 44.0292 28.2975C44.0045 28.2588 43.9921 28.2142 43.9921 28.1637C43.9921 28.1025 44.0077 28.0482 44.0389 28.001C44.0711 27.9526 44.1157 27.9145 44.1726 27.8866C44.2306 27.8586 44.294 27.8447 44.3627 27.8447C44.4315 27.8447 44.4949 27.8586 44.5529 27.8866C44.6077 27.9134 44.6517 27.9516 44.685 28.001C44.7172 28.0493 44.7333 28.1036 44.7333 28.1637C44.7333 28.2142 44.721 28.2588 44.6963 28.2975C44.6694 28.3394 44.6367 28.3727 44.598 28.3974V28.4103C44.6474 28.436 44.6888 28.4736 44.7221 28.523C44.7554 28.5725 44.772 28.6267 44.772 28.6858C44.772 28.7513 44.7548 28.8093 44.7205 28.8598C44.6829 28.9135 44.6345 28.9543 44.5754 28.9823C44.5121 29.0113 44.4412 29.0258 44.3627 29.0258C44.2843 29.0258 44.2134 29.0113 44.15 28.9823ZM44.4788 28.2781C44.5088 28.2523 44.5239 28.2185 44.5239 28.1766C44.5239 28.1358 44.5088 28.1025 44.4788 28.0767C44.4476 28.0509 44.4089 28.038 44.3627 28.038C44.3144 28.038 44.2752 28.0509 44.2451 28.0767C44.215 28.1025 44.2 28.1358 44.2 28.1766C44.2 28.2185 44.215 28.2523 44.2451 28.2781C44.2752 28.3039 44.3144 28.3168 44.3627 28.3168C44.4089 28.3168 44.4476 28.3039 44.4788 28.2781ZM44.3627 28.826C44.4197 28.826 44.4659 28.8115 44.5013 28.7825C44.5368 28.7535 44.5545 28.7143 44.5545 28.6648C44.5545 28.6176 44.5362 28.5794 44.4997 28.5504C44.4632 28.5214 44.4175 28.5069 44.3627 28.5069C44.308 28.5069 44.2623 28.5214 44.2258 28.5504C44.1882 28.5794 44.1694 28.6176 44.1694 28.6648C44.1694 28.7143 44.1876 28.7535 44.2242 28.7825C44.2618 28.8115 44.308 28.826 44.3627 28.826Z" fill="white"/>
<path d="M6.19775 40.2894C5.86816 40.0636 5.62708 39.7554 5.47449 39.3647L6.17944 39.0443C6.30151 39.3373 6.47852 39.5601 6.71045 39.7126C6.95459 39.8713 7.21399 39.9507 7.48865 39.9507C7.78772 39.9507 8.04407 39.8896 8.25769 39.7676C8.47131 39.6455 8.57812 39.4716 8.57812 39.2457C8.57812 39.0443 8.49268 38.8826 8.32178 38.7605C8.16309 38.6445 7.89758 38.5408 7.52527 38.4492L6.93933 38.2936C6.56091 38.202 6.24963 38.0433 6.00549 37.8175C5.76135 37.5917 5.63928 37.3018 5.63928 36.9478C5.63928 36.6792 5.72168 36.4381 5.88647 36.2245C6.05737 36.0109 6.2771 35.8491 6.54565 35.7393C6.83862 35.6233 7.1377 35.5653 7.44287 35.5653C7.85791 35.5653 8.23022 35.6569 8.55981 35.84C8.8833 36.017 9.11523 36.2703 9.25562 36.5999L8.56897 36.9203C8.35535 36.493 7.97693 36.2794 7.43372 36.2794C7.17737 36.2794 6.94543 36.3405 6.73792 36.4625C6.5426 36.5785 6.44495 36.7341 6.44495 36.9294C6.44495 37.1003 6.51514 37.2407 6.65552 37.3506C6.7959 37.4604 7.00037 37.552 7.26892 37.6252L7.96472 37.7992C8.4408 37.9213 8.7948 38.0983 9.02673 38.3302C9.26477 38.5682 9.38379 38.8551 9.38379 39.1908C9.38379 39.4777 9.29834 39.734 9.12744 39.9598C8.96265 40.1796 8.73376 40.3505 8.4408 40.4725C8.16614 40.5885 7.84875 40.6465 7.48865 40.6465C6.97595 40.6465 6.54565 40.5275 6.19775 40.2894ZM11.4207 40.3169C11.0483 40.0911 10.7554 39.7828 10.5417 39.3922C10.3342 39.0138 10.2305 38.5865 10.2305 38.1105C10.2305 37.6344 10.3342 37.2072 10.5417 36.8287C10.7554 36.4381 11.0483 36.1299 11.4207 35.9041C11.793 35.6782 12.2141 35.5653 12.6841 35.5653C13.1541 35.5653 13.5752 35.6782 13.9475 35.9041C14.3198 36.1299 14.6128 36.4381 14.8264 36.8287C15.0339 37.2072 15.1377 37.6344 15.1377 38.1105C15.1377 38.5865 15.0339 39.0138 14.8264 39.3922C14.6128 39.7828 14.3198 40.0911 13.9475 40.3169C13.5874 40.5366 13.1663 40.6465 12.6841 40.6465C12.2019 40.6465 11.7808 40.5366 11.4207 40.3169ZM13.5081 39.7035C13.7522 39.5631 13.9536 39.3525 14.1123 39.0718C14.2649 38.8032 14.3412 38.4828 14.3412 38.1105C14.3412 37.7321 14.2649 37.4086 14.1123 37.14C13.9536 36.8593 13.7522 36.6487 13.5081 36.5083C13.2517 36.3618 12.9771 36.2886 12.6841 36.2886C12.3911 36.2886 12.1165 36.3618 11.8601 36.5083C11.6099 36.6548 11.4054 36.8654 11.2467 37.14C11.0941 37.4086 11.0178 37.7321 11.0178 38.1105C11.0178 38.4828 11.0941 38.8032 11.2467 39.0718C11.4054 39.3464 11.6099 39.557 11.8601 39.7035C12.1287 39.8561 12.4033 39.9324 12.6841 39.9324C12.9648 39.9324 13.2395 39.8561 13.5081 39.7035ZM20.4338 40.4817C20.2568 40.4146 20.1165 40.3291 20.0127 40.2253C19.7686 39.9873 19.6465 39.6608 19.6465 39.2457V36.4442H17.4675V40.5H16.671V36.4442H15.7921V35.7209H16.671V35.1991C16.671 34.9 16.7382 34.6376 16.8724 34.4117C17.0006 34.1981 17.1868 34.0272 17.4309 33.899C17.6628 33.777 17.9192 33.7159 18.2 33.7159C18.4685 33.7159 18.7035 33.7526 18.9049 33.8258V34.604C18.8011 34.5613 18.6943 34.5247 18.5845 34.4941C18.4929 34.4697 18.3739 34.4575 18.2274 34.4575C18.0199 34.4575 17.8429 34.5308 17.6964 34.6772C17.5438 34.8298 17.4675 35.0343 17.4675 35.2906V35.7209H19.6465V34.366H20.443V35.7209H21.6149V36.4442H20.443V39.0443C20.443 39.319 20.4918 39.5143 20.5895 39.6302C20.7054 39.7645 20.8763 39.8317 21.1022 39.8317C21.3097 39.8317 21.4867 39.7798 21.6332 39.676V40.4542C21.5538 40.4969 21.4562 40.5275 21.3402 40.5458C21.2365 40.5641 21.1144 40.5732 20.974 40.5732C20.7726 40.5732 20.5925 40.5427 20.4338 40.4817ZM22.3608 35.7209H23.1848L24.3201 39.4929H24.3292L25.5377 35.7209H26.3525L27.561 39.4838H27.5793L28.7054 35.7209H29.5111L27.973 40.5H27.1582L25.9222 36.6823L24.6954 40.5H23.8989L22.3608 35.7209ZM30.8522 40.4451C30.5714 40.3047 30.3578 40.1155 30.2113 39.8774C30.0648 39.6394 29.9916 39.3647 29.9916 39.0535C29.9916 38.5469 30.1808 38.1532 30.5592 37.8724C30.9498 37.5856 31.432 37.4421 32.0057 37.4421C32.3048 37.4421 32.5734 37.4727 32.8114 37.5337C33.0555 37.5947 33.2417 37.668 33.3699 37.7534V37.4604C33.3699 37.1125 33.2478 36.8287 33.0037 36.609C32.7595 36.3893 32.4421 36.2794 32.0515 36.2794C31.7891 36.2794 31.5449 36.3374 31.3191 36.4534C31.0811 36.5754 30.901 36.7372 30.7789 36.9386L30.1747 36.49C30.3578 36.2092 30.6172 35.9834 30.9529 35.8125C31.2825 35.6477 31.6487 35.5653 32.0515 35.5653C32.6985 35.5653 33.2081 35.7362 33.5804 36.078C33.9467 36.4137 34.1298 36.8776 34.1298 37.4696V40.5H33.3699V39.8134H33.3333C33.1929 40.0514 32.9884 40.2498 32.7198 40.4084C32.4574 40.5671 32.1461 40.6465 31.786 40.6465C31.432 40.6465 31.1207 40.5793 30.8522 40.4451ZM32.6191 39.7401C32.8511 39.5997 33.0342 39.4166 33.1685 39.1908C33.3027 38.965 33.3699 38.7117 33.3699 38.4309C33.2234 38.3333 33.0403 38.2509 32.8206 38.1837C32.613 38.1227 32.3811 38.0922 32.1248 38.0922C31.6853 38.0922 31.3557 38.1837 31.136 38.3668C30.9163 38.5499 30.8064 38.7819 30.8064 39.0626C30.8064 39.3251 30.9071 39.5387 31.1085 39.7035C31.3099 39.8683 31.5632 39.9507 31.8684 39.9507C32.137 39.9507 32.3872 39.8805 32.6191 39.7401ZM35.425 35.7209H36.1758V36.49H36.2216C36.307 36.2336 36.4871 36.017 36.7617 35.84C37.0303 35.663 37.311 35.5745 37.604 35.5745C37.8176 35.5745 38.0068 35.608 38.1716 35.6752V36.5358C37.9641 36.432 37.7383 36.3801 37.4941 36.3801C37.2683 36.3801 37.0547 36.4473 36.8533 36.5815C36.6641 36.7036 36.5084 36.8806 36.3864 37.1125C36.2765 37.314 36.2216 37.552 36.2216 37.8267V40.5H35.425V35.7209ZM39.7416 40.326C39.3754 40.1063 39.0916 39.8042 38.8901 39.4197C38.6887 39.0352 38.588 38.6018 38.588 38.1196C38.588 37.6558 38.6826 37.2316 38.8718 36.847C39.0671 36.4503 39.3387 36.139 39.6866 35.9132C40.0468 35.6813 40.4526 35.5653 40.9043 35.5653C41.3621 35.5653 41.7679 35.6721 42.1219 35.8857C42.4637 36.0933 42.7262 36.3801 42.9093 36.7463C43.0985 37.1248 43.1931 37.549 43.1931 38.0189C43.1931 38.0555 43.187 38.1349 43.1748 38.257H39.3845C39.4028 38.6232 39.4913 38.9314 39.65 39.1816C39.8026 39.4197 40.001 39.6058 40.2451 39.7401C40.4832 39.8683 40.7334 39.9324 40.9958 39.9324C41.6184 39.9324 42.0914 39.6425 42.4149 39.0626L43.0833 39.3922C42.8818 39.7767 42.6041 40.0819 42.2501 40.3077C41.8961 40.5336 41.4689 40.6465 40.9684 40.6465C40.5045 40.6465 40.0956 40.5397 39.7416 40.326ZM42.3417 37.6069C42.3356 37.4055 42.2806 37.2041 42.1769 37.0027C42.0792 36.8074 41.9236 36.6395 41.71 36.4991C41.4963 36.3588 41.2278 36.2886 40.9043 36.2886C40.5381 36.2886 40.2177 36.4106 39.943 36.6548C39.6866 36.8867 39.5157 37.2041 39.4303 37.6069H42.3417Z" fill="white"/>
<rect x="3" y="32.25" width="42" height="0.75" fill="white"/>
<rect x="3" y="42" width="42" height="0.75" fill="white"/>
<path fill-rule="evenodd" clip-rule="evenodd" d="M22.7631 13.5L18 5.25L3.06104 31.125H32.9389L29.6913 25.5H16.5V13.5H22.7631Z" fill="white"/>
<rect x="54" y="4" width="1" height="40" fill="white"/>
<path d="M69.0582 6.27273H67.2216V11.7614H67.1449L63.3778 6.27273H61.7585V15H63.6037V9.5071H63.6676L67.4645 15H69.0582V6.27273ZM70.7027 15H72.5479V11.3949H76.2937V15H78.1346V6.27273H76.2937V9.87358H72.5479V6.27273H70.7027V15ZM87.7958 10.6364C87.7958 7.78125 86.023 6.15341 83.7091 6.15341C81.3824 6.15341 79.6225 7.78125 79.6225 10.6364C79.6225 13.4787 81.3824 15.1193 83.7091 15.1193C86.023 15.1193 87.7958 13.4915 87.7958 10.6364ZM85.925 10.6364C85.925 12.4858 85.0472 13.4872 83.7091 13.4872C82.3668 13.4872 81.4932 12.4858 81.4932 10.6364C81.4932 8.78693 82.3668 7.78551 83.7091 7.78551C85.0472 7.78551 85.925 8.78693 85.925 10.6364ZM83.0571 5.42898H84.3398L85.6395 3.49006H83.9605L83.0571 5.42898ZM89.2826 6.27273V15H91.0724V9.2983H91.1448L93.4033 14.9574H94.6221L96.8806 9.3196H96.953V15H98.7428V6.27273H96.4672L94.0638 12.1364H93.9616L91.5582 6.27273H89.2826ZM110.58 6.27273H108.743V11.7614H108.667L104.9 6.27273H103.28V15H105.126V9.5071H105.189L108.986 15H110.58V6.27273ZM118.012 9.09375H119.887C119.648 7.3679 118.127 6.15341 116.154 6.15341C113.848 6.15341 112.071 7.81534 112.071 10.6449C112.071 13.4062 113.733 15.1193 116.192 15.1193C118.395 15.1193 119.968 13.7259 119.968 11.429V10.3295H116.316V11.7188H118.191C118.165 12.8011 117.428 13.4872 116.2 13.4872C114.816 13.4872 113.942 12.4517 113.942 10.6278C113.942 8.8125 114.85 7.78551 116.183 7.78551C117.134 7.78551 117.777 8.27557 118.012 9.09375ZM121.474 15H123.319V11.3949H127.064V15H128.905V6.27273H127.064V9.87358H123.319V6.27273H121.474V15ZM132.392 6.27273H130.547V15H132.392V6.27273ZM134.03 15H139.928V13.4787H135.875V11.3949H139.608V9.87358H135.875V7.79403H139.911V6.27273H134.03V15ZM136.127 5.49716L136.983 4.45739L137.84 5.49716H139.386V5.4375L137.656 3.5625H136.305L134.58 5.4375V5.49716H136.127ZM148.797 6.27273H146.961V11.7614H146.884L143.117 6.27273H141.498V15H143.343V9.5071H143.407L147.204 15H148.797V6.27273ZM161.039 9.32812C160.797 7.3125 159.271 6.15341 157.251 6.15341C154.946 6.15341 153.186 7.78125 153.186 10.6364C153.186 13.483 154.916 15.1193 157.251 15.1193C159.488 15.1193 160.839 13.6321 161.039 12.0256L159.173 12.017C158.998 12.9503 158.265 13.4872 157.281 13.4872C155.956 13.4872 155.056 12.5028 155.056 10.6364C155.056 8.82102 155.943 7.78551 157.294 7.78551C158.304 7.78551 159.032 8.36932 159.173 9.32812H161.039ZM170.566 5.95739C170.566 6.88636 170.485 7.51705 169.718 7.70455V6.27273H167.873V11.7827C167.873 12.7798 167.174 13.5 166.1 13.5C165.031 13.5 164.328 12.7798 164.328 11.7827V6.27273H162.483V11.9403C162.483 13.8494 163.923 15.1236 166.1 15.1236C168.27 15.1236 169.718 13.8494 169.718 11.9403V8.68466C171.257 8.50142 171.738 7.52131 171.738 5.95739H170.566ZM165.448 5.42898H166.731L168.031 3.49006H166.352L165.448 5.42898ZM178.435 6.27273V11.7827C178.435 12.7798 177.736 13.5 176.662 13.5C175.592 13.5 174.889 12.7798 174.889 11.7827V6.27273H173.044V11.9403C173.044 13.8494 174.484 15.1236 176.662 15.1236C178.831 15.1236 180.28 13.8494 180.28 11.9403V6.27273H178.435ZM63.3352 20.2727H61.2855L64.2983 29H66.6761L69.6847 20.2727H67.6392L65.5256 26.9034H65.4446L63.3352 20.2727ZM71.1992 29L71.8469 27.0099H74.9961L75.6438 29H77.6211L74.6125 20.2727H72.2347L69.2219 29H71.1992ZM72.3157 25.5696L73.3895 22.267H73.4577L74.5316 25.5696H72.3157ZM72.7929 19.429H74.0756L73.1679 17.4901H71.4932L72.7929 19.429ZM81.6888 29H83.534V26.1705H85.0851C87.0922 26.1705 88.2599 24.973 88.2599 23.2301C88.2599 21.4957 87.1136 20.2727 85.132 20.2727H81.6888V29ZM83.534 24.6918V21.7812H84.7783C85.8437 21.7812 86.3593 22.3608 86.3593 23.2301C86.3593 24.0952 85.8437 24.6918 84.7868 24.6918H83.534ZM89.5784 29H91.4235V25.3949H95.1693V29H97.0102V20.2727H95.1693V23.8736H91.4235V20.2727H89.5784V29ZM100.156 29L100.803 27.0099H103.953L104.6 29H106.578L103.569 20.2727H101.191L98.1785 29H100.156ZM101.272 25.5696L102.346 22.267H102.414L103.488 25.5696H101.272ZM101.728 19.429H103.011L104.311 17.4901H102.632L101.728 19.429ZM106.338 21.794H109.009V29H110.833V21.794H113.505V20.2727H106.338V21.794ZM117.371 21.794H120.042V29H121.866V21.794H124.538V20.2727H117.371V21.794ZM125.839 29H127.684V25.9062H129.03L130.684 29H132.721L130.867 25.608C131.86 25.1818 132.41 24.3168 132.41 23.1236C132.41 21.3892 131.263 20.2727 129.282 20.2727H125.839V29ZM127.684 24.4233V21.7812H128.928C129.993 21.7812 130.509 22.2543 130.509 23.1236C130.509 23.9886 129.993 24.4233 128.937 24.4233H127.684ZM135.679 20.2727H133.834V29H135.679V20.2727ZM137.317 29H143.215V27.4787H139.162V25.3949H142.895V23.8736H139.162V21.794H143.197V20.2727H137.317V29ZM140.777 18.2784H139.733L138.054 19.6037H139.303L140.261 18.858L141.207 19.6037H142.456L140.777 18.2784ZM142.844 18.858V18.5511C143.223 18.4915 143.611 18.2741 143.611 17.848C143.611 17.2344 142.989 16.8807 141.834 16.8807L141.791 17.5668C142.209 17.5668 142.52 17.6392 142.52 17.8991C142.52 18.0952 142.307 18.1932 141.821 18.2188L141.902 18.858H142.844ZM152.084 20.2727H150.248V25.7614H150.171L146.404 20.2727H144.784V29H146.63V23.5071H146.694L150.49 29H152.084V20.2727Z" fill="white"/>
<path d="M61.7173 42H63.0348V39.3366H64.3771L65.8047 42H67.2749L65.7017 39.1165C66.5575 38.772 67.0085 38.0405 67.0085 37.0533C67.0085 35.6648 66.1136 34.7273 64.4446 34.7273H61.7173V42ZM63.0348 38.2429V35.8281H64.2422C65.2259 35.8281 65.6662 36.2791 65.6662 37.0533C65.6662 37.8274 65.2259 38.2429 64.2493 38.2429H63.0348ZM70.4377 42.1065C71.0805 42.1065 71.7942 41.9077 72.3021 41.4673L72.7673 42H74.1593L73.094 40.7536C73.4491 40.2777 73.7261 39.571 73.7261 38.5732H72.6217C72.6217 39.0526 72.508 39.4822 72.3163 39.8409L70.9881 38.2855L71.4462 37.9482C72.0535 37.5078 72.4121 36.9787 72.4121 36.2898C72.4121 35.402 71.7126 34.6385 70.5656 34.6385C69.415 34.6385 68.6586 35.402 68.6586 36.4354C68.6586 37.0852 68.9853 37.6143 69.4043 38.1328C68.5947 38.6903 68.0407 39.2124 68.0407 40.0682C68.0407 41.2259 68.9498 42.1065 70.4377 42.1065ZM71.6025 40.6648C71.258 40.9134 70.8638 41.0483 70.4768 41.0483C69.763 41.0483 69.3013 40.5866 69.3013 40.0114C69.3013 39.7592 69.4931 39.3793 69.9761 39.0241L70.0933 38.9389L71.6025 40.6648ZM70.3312 37.5007C70.0258 37.1243 69.8056 36.7869 69.8056 36.4531C69.8056 36.0589 70.1181 35.6932 70.5833 35.6932C71.0414 35.6932 71.3219 36.0341 71.3219 36.3466C71.3219 36.7159 71.1231 36.9751 70.7431 37.2202L70.3312 37.5007ZM77.5166 42C79.7325 42 81.0464 40.6293 81.0464 38.3565C81.0464 36.0909 79.7325 34.7273 77.5663 34.7273H75.0521V42H77.5166ZM76.3696 40.8601V35.8672H77.4917C78.969 35.8672 79.7396 36.6911 79.7396 38.3565C79.7396 40.0291 78.969 40.8601 77.4527 40.8601H76.3696ZM87.4431 42C89.6591 42 90.973 40.6293 90.973 38.3565C90.973 36.0909 89.6591 34.7273 87.4929 34.7273H84.9787V42H87.4431ZM86.2961 40.8601V35.8672H87.4183C88.8956 35.8672 89.6662 36.6911 89.6662 38.3565C89.6662 40.0291 88.8956 40.8601 87.3792 40.8601H86.2961ZM92.3248 42H97.0833V40.8956H93.6422V38.9105H96.8098V37.8061H93.6422V35.8317H97.0549V34.7273H92.3248V42ZM98.499 42H99.8164V39.5426H101.208C102.888 39.5426 103.79 38.5341 103.79 37.1349C103.79 35.7464 102.899 34.7273 101.226 34.7273H98.499V42ZM99.8164 38.4595V35.8281H101.024C102.011 35.8281 102.448 36.3608 102.448 37.1349C102.448 37.9091 102.011 38.4595 101.031 38.4595H99.8164ZM105.158 42L105.758 40.2067H108.492L109.096 42H110.502L107.938 34.7273H106.312L103.752 42H105.158ZM106.113 39.1484L107.097 36.2188H107.154L108.137 39.1484H106.113ZM111.56 42H112.878V39.3366H114.22L115.648 42H117.118L115.545 39.1165C116.4 38.772 116.851 38.0405 116.851 37.0533C116.851 35.6648 115.957 34.7273 114.288 34.7273H111.56V42ZM112.878 38.2429V35.8281H114.085C115.069 35.8281 115.509 36.2791 115.509 37.0533C115.509 37.8274 115.069 38.2429 114.092 38.2429H112.878ZM117.845 35.8317H120.092V42H121.399V35.8317H123.647V34.7273H117.845V35.8317ZM124.866 34.7273V42H126.13V36.9929H126.197L128.207 41.9787H129.152L131.162 37.0036H131.229V42H132.494V34.7273H130.881L128.722 39.9972H128.637L126.478 34.7273H124.866ZM134.028 42H138.787V40.8956H135.346V38.9105H138.513V37.8061H135.346V35.8317H138.758V34.7273H134.028V42ZM146.179 34.7273H144.869V39.6847H144.805L141.381 34.7273H140.202V42H141.52V37.0462H141.58L145.007 42H146.179V34.7273ZM147.395 35.8317H149.643V42H150.95V35.8317H153.198V34.7273H147.395V35.8317Z" fill="white"/>
</svg>
