<svg width="630" height="422" viewBox="0 0 630 422" fill="none" xmlns="http://www.w3.org/2000/svg">
<rect width="630" height="422" rx="16" fill="white"/>
<path fill-rule="evenodd" clip-rule="evenodd" d="M247.443 122.5L198.5 36L54 290.5H342.5L324.394 258.5H191V122.5H247.443Z" fill="#E4BE90"/>
<rect x="55" y="301.5" width="510" height="5" fill="#E4BE90"/>
<rect x="55" y="381.5" width="510" height="5" fill="#E4BE90"/>
<path d="M281.688 138.921H292.435L302.804 176.839L288.727 180.926C284.034 171.894 279.619 165.486 275.482 161.702C269.73 156.505 263.499 153.907 256.788 153.907C251.894 153.907 247.303 155.269 243.014 157.994C238.776 160.718 235.395 164.729 232.872 170.027C230.4 175.325 229.164 181.531 229.164 188.646C229.164 199.493 232.014 208.828 237.716 216.648C243.468 224.469 250.986 228.379 260.27 228.379C266.173 228.379 271.849 226.689 277.298 223.309C284.11 219.121 289.988 213.495 294.933 206.431L306.664 215.135C299.045 225.529 292.082 232.769 285.775 236.856C276.037 243.163 265.189 246.316 253.231 246.316C243.291 246.316 234.285 243.945 226.212 239.202C218.19 234.409 211.782 227.723 206.988 219.146C202.195 210.569 199.798 201.209 199.798 191.067C199.798 180.976 202.119 171.793 206.761 163.519C211.454 155.193 217.811 148.71 225.834 144.068C233.907 139.426 242.888 137.105 252.777 137.105C262.818 137.105 271.622 139.224 279.191 143.462L281.688 138.921ZM314.393 164.124H353.63V175.244H349.77C348.003 175.244 346.736 175.455 345.967 175.878C345.238 176.3 344.7 176.915 344.354 177.722C344.008 178.49 343.836 180.084 343.836 182.504V211.773C343.836 217.228 344.373 221.299 345.449 223.988C346.563 226.677 348.214 228.732 350.404 230.153C352.632 231.536 355.321 232.228 358.47 232.228C361.62 232.228 364.424 231.459 366.882 229.923C369.341 228.386 371.088 226.447 372.126 224.104C373.201 221.722 373.739 217.804 373.739 212.35V180.084C373.739 178.74 373.566 177.779 373.22 177.203C372.759 176.435 372.145 175.897 371.377 175.59C370.839 175.359 369.475 175.244 367.286 175.244H364.174V164.124H397.419V175.244H394.827C392.253 175.244 390.659 175.398 390.044 175.705C389.123 176.166 388.45 176.838 388.028 177.722C387.721 178.298 387.567 179.892 387.567 182.504V214.193C387.567 220.032 386.722 224.929 385.032 228.886C382.689 234.263 378.944 238.45 373.796 241.446C368.688 244.404 362.619 245.883 355.589 245.883C350.634 245.883 346.198 245.134 342.28 243.636C338.362 242.099 334.924 239.929 331.966 237.125C329.047 234.283 326.992 231.286 325.801 228.137C324.649 224.987 324.073 220.339 324.073 214.193V183.138C324.073 180.295 323.919 178.471 323.612 177.664C323.305 176.819 322.805 176.204 322.114 175.82C321.422 175.436 320.078 175.244 318.081 175.244H314.393V164.124ZM467.019 164.124L473.933 191.089L463.216 194.143C459.644 187.728 455.591 183.042 451.059 180.084C446.526 177.088 441.706 175.59 436.597 175.59C433.293 175.59 430.682 176.262 428.761 177.606C426.879 178.951 425.938 180.449 425.938 182.101C425.938 183.983 426.802 185.73 428.53 187.344C430.221 188.957 433.332 190.397 437.864 191.665L453.306 196.159C461.872 198.618 467.979 201.882 471.628 205.954C475.239 210.064 477.044 214.846 477.044 220.301C477.044 227.253 474.279 233.13 468.747 237.932C462.563 243.232 454.881 245.883 445.7 245.883C441.437 245.883 437.519 245.345 433.946 244.27C430.374 243.156 426.648 241.312 422.769 238.738L420.234 244.5H411.649L405.945 213.329L416.719 210.736C419.254 217.074 423.191 222.375 428.53 226.639C433.908 230.864 439.804 232.977 446.219 232.977C449.1 232.977 451.481 232.612 453.363 231.882C455.284 231.152 456.724 230.134 457.685 228.828C458.645 227.522 459.125 226.178 459.125 224.795C459.125 222.49 458.011 220.512 455.783 218.86C453.517 217.209 449.561 215.576 443.914 213.963L430.489 210.045C428.454 209.469 425.688 208.393 422.193 206.818C418.736 205.205 416.066 203.534 414.184 201.806C412.34 200.077 410.804 197.868 409.574 195.18C408.345 192.452 407.731 189.591 407.731 186.595C407.731 182.331 408.902 178.413 411.245 174.841C413.627 171.23 417.18 168.311 421.904 166.083C426.668 163.855 431.93 162.741 437.692 162.741C444.644 162.741 450.924 164.547 456.532 168.157L458.779 164.124H467.019ZM548.66 164.124H556.842L564.735 192.99L554.018 196.102C550.446 189.226 547.085 184.348 543.935 181.467C539.556 177.51 534.813 175.532 529.704 175.532C525.978 175.532 522.483 176.569 519.218 178.644C515.991 180.718 513.417 183.771 511.497 187.805C509.615 191.838 508.674 196.562 508.674 201.979C508.674 210.237 510.844 217.343 515.184 223.297C519.563 229.251 525.287 232.228 532.354 232.228C536.848 232.228 541.17 230.941 545.318 228.367C550.504 225.179 554.979 220.896 558.743 215.519L567.674 222.145C561.874 230.057 556.573 235.569 551.771 238.681C544.358 243.482 536.099 245.883 526.996 245.883C519.429 245.883 512.572 244.077 506.427 240.467C500.319 236.818 495.441 231.728 491.792 225.198C488.143 218.668 486.318 211.543 486.318 203.822C486.318 196.14 488.085 189.149 491.619 182.85C495.191 176.512 500.031 171.576 506.139 168.042C512.284 164.508 519.122 162.741 526.65 162.741C534.294 162.741 540.997 164.354 546.759 167.581L548.66 164.124Z" fill="#295097"/>
<path d="M57.9162 331.116H73.8733C74.9 331.116 76.0194 331.209 77.2317 331.395C78.4563 331.58 79.5572 331.988 80.5344 332.619C81.524 333.25 82.2909 334.048 82.8352 335.013C83.3795 335.978 83.6516 337.066 83.6516 338.278C83.6516 340.245 82.9465 341.841 81.5364 343.065C80.1386 344.278 78.481 345.069 76.5637 345.44L81.8889 351.638L82.1116 351.916C82.4579 352.337 82.7733 352.652 83.0578 352.862C83.3424 353.06 83.6269 353.202 83.9114 353.289C84.1959 353.376 84.5917 353.419 85.0989 353.419H86.2121V357H77.9182L69.6057 345.849H67.4534V351.007C67.4534 351.897 67.5028 352.466 67.6018 352.714C67.7007 352.949 67.8554 353.128 68.0657 353.252C68.2883 353.363 68.7274 353.419 69.383 353.419H70.5705V357H57.9162V353.419H59.0666C59.6728 353.419 60.0995 353.357 60.3469 353.233C60.6067 353.097 60.7984 352.899 60.9221 352.64C60.984 352.491 61.0149 352.027 61.0149 351.248V336.683C61.0149 336.114 60.9654 335.712 60.8664 335.477C60.7799 335.229 60.6314 335.068 60.4211 334.994C60.1243 334.858 59.7841 334.79 59.4006 334.79L58.8811 334.809H57.9162V331.116ZM67.4534 335.365V342.063H71.2942C72.8033 342.063 73.9289 341.927 74.6711 341.655C75.4257 341.371 75.9885 340.969 76.3596 340.449C76.7431 339.93 76.9348 339.299 76.9348 338.557C76.9348 337.876 76.7554 337.295 76.3967 336.812C76.0504 336.318 75.5494 335.953 74.8938 335.718C74.2506 335.483 73.1929 335.365 71.7209 335.365H67.4534ZM104.776 350.135L107.318 352.695C105.858 354.365 104.368 355.577 102.846 356.332C101.337 357.074 99.7041 357.445 97.9476 357.445C95.1273 357.445 92.7523 356.493 90.8226 354.588C88.8929 352.671 87.9281 350.357 87.9281 347.648C87.9281 345.867 88.361 344.241 89.2269 342.769C90.0928 341.284 91.2927 340.128 92.8265 339.299C94.3604 338.458 96.0983 338.037 98.0404 338.037C99.2774 338.037 100.403 338.216 101.417 338.575C102.432 338.934 103.316 339.447 104.071 340.115C104.838 340.783 105.45 341.593 105.908 342.546C106.378 343.486 106.699 344.463 106.872 345.478C106.947 345.985 106.984 346.789 106.984 347.89H94.4964C94.5212 349.461 94.9789 350.735 95.8695 351.712C96.7725 352.677 97.8734 353.159 99.1722 353.159C100.001 353.159 100.904 352.912 101.881 352.417C102.858 351.91 103.823 351.149 104.776 350.135ZM101.065 344.772C100.978 344.03 100.799 343.449 100.527 343.028C100.267 342.595 99.9082 342.255 99.4505 342.008C99.0052 341.748 98.5352 341.618 98.0404 341.618C97.5209 341.618 97.0199 341.748 96.5375 342.008C96.055 342.268 95.6654 342.62 95.3685 343.065C95.084 343.511 94.8985 344.08 94.8119 344.772H101.065ZM123.005 338.482H125.436L126.939 343.641L123.432 345.051C122.764 343.975 121.923 343.133 120.909 342.527C119.907 341.909 118.911 341.6 117.921 341.6C117.266 341.6 116.777 341.711 116.456 341.934C116.134 342.156 115.973 342.422 115.973 342.731C115.973 342.991 116.084 343.232 116.307 343.455C116.542 343.678 117.018 343.913 117.736 344.16L122.838 345.979C123.741 346.3 124.607 346.702 125.436 347.185C126.265 347.667 126.883 348.261 127.291 348.966C127.712 349.659 127.922 350.475 127.922 351.415C127.922 353.097 127.279 354.477 125.993 355.553C124.484 356.814 122.603 357.445 120.352 357.445C118.422 357.445 116.74 356.957 115.305 355.979L114.786 357H112.318L110.036 350.914L113.542 349.43C114.421 350.803 115.503 351.885 116.79 352.677C118.076 353.456 119.257 353.846 120.333 353.846C121.001 353.846 121.564 353.691 122.022 353.382C122.368 353.134 122.541 352.844 122.541 352.51C122.541 352.225 122.405 351.953 122.133 351.693C121.861 351.434 121.261 351.143 120.333 350.821L116.326 349.43C114.111 348.65 112.602 347.822 111.798 346.943C111.007 346.053 110.611 345.001 110.611 343.789C110.611 342.23 111.235 340.919 112.485 339.855C113.907 338.643 115.664 338.037 117.754 338.037C119.61 338.037 121.199 338.458 122.523 339.299L123.005 338.482ZM147.358 350.135L149.9 352.695C148.44 354.365 146.95 355.577 145.428 356.332C143.919 357.074 142.286 357.445 140.53 357.445C137.71 357.445 135.335 356.493 133.405 354.588C131.475 352.671 130.51 350.357 130.51 347.648C130.51 345.867 130.943 344.241 131.809 342.769C132.675 341.284 133.875 340.128 135.409 339.299C136.943 338.458 138.681 338.037 140.623 338.037C141.86 338.037 142.985 338.216 144 338.575C145.014 338.934 145.898 339.447 146.653 340.115C147.42 340.783 148.032 341.593 148.49 342.546C148.96 343.486 149.282 344.463 149.455 345.478C149.529 345.985 149.566 346.789 149.566 347.89H137.079C137.103 349.461 137.561 350.735 138.452 351.712C139.355 352.677 140.456 353.159 141.754 353.159C142.583 353.159 143.486 352.912 144.463 352.417C145.441 351.91 146.406 351.149 147.358 350.135ZM143.647 344.772C143.56 344.03 143.381 343.449 143.109 343.028C142.849 342.595 142.49 342.255 142.033 342.008C141.587 341.748 141.117 341.618 140.623 341.618C140.103 341.618 139.602 341.748 139.12 342.008C138.637 342.268 138.248 342.62 137.951 343.065C137.666 343.511 137.481 344.08 137.394 344.772H143.647ZM164.215 345.774V344.401C164.215 343.585 164.147 343.022 164.01 342.713C163.874 342.404 163.627 342.15 163.268 341.952C162.91 341.742 162.464 341.637 161.932 341.637C161.524 341.637 161.153 341.705 160.819 341.841C160.485 341.977 160.219 342.15 160.021 342.36C159.823 342.571 159.594 342.979 159.335 343.585C159.001 344.352 158.599 344.902 158.129 345.236C157.671 345.57 157.127 345.737 156.496 345.737C155.704 345.737 155.055 345.49 154.548 344.995C154.04 344.5 153.787 343.888 153.787 343.158C153.787 342.329 154.047 341.593 154.566 340.95C155.259 340.097 156.292 339.398 157.665 338.854C159.038 338.309 160.584 338.037 162.303 338.037C164.023 338.037 165.482 338.315 166.682 338.872C167.895 339.429 168.736 340.097 169.206 340.876C169.688 341.643 169.929 342.818 169.929 344.401V351.044C169.929 351.86 169.973 352.386 170.059 352.621C170.146 352.844 170.331 353.042 170.616 353.215C170.9 353.388 171.216 353.475 171.562 353.475C171.909 353.475 172.372 353.376 172.954 353.178V356.796C171.902 357.13 170.894 357.297 169.929 357.297C168.791 357.297 167.82 357.111 167.016 356.74C166.212 356.369 165.538 355.812 164.994 355.07C163.757 355.874 162.631 356.45 161.617 356.796C160.615 357.13 159.644 357.297 158.704 357.297C156.935 357.297 155.506 356.802 154.418 355.812C153.329 354.811 152.785 353.58 152.785 352.12C152.785 351.291 152.97 350.531 153.342 349.838C153.725 349.145 154.288 348.539 155.03 348.02C155.785 347.5 156.941 347.042 158.5 346.646C160.071 346.238 161.976 345.948 164.215 345.774ZM164.215 348.854C162.594 349.09 161.45 349.331 160.782 349.578C160.114 349.813 159.638 350.116 159.353 350.487C159.069 350.846 158.926 351.217 158.926 351.601C158.926 352.095 159.112 352.51 159.483 352.844C159.854 353.178 160.355 353.345 160.986 353.345C161.394 353.345 161.864 353.24 162.396 353.029C162.94 352.819 163.547 352.51 164.215 352.102V348.854ZM183.65 338.037V340.728C184.64 339.688 185.493 338.983 186.211 338.612C186.941 338.229 187.639 338.037 188.307 338.037C188.914 338.037 189.452 338.179 189.922 338.464C190.404 338.736 190.781 339.132 191.054 339.651C191.338 340.171 191.48 340.728 191.48 341.321C191.48 342.101 191.221 342.806 190.701 343.437C190.194 344.067 189.476 344.383 188.549 344.383C188.301 344.383 188.079 344.364 187.881 344.327C187.695 344.29 187.293 344.166 186.675 343.956C186.353 343.857 186.087 343.808 185.877 343.808C185.555 343.808 185.023 344.012 184.281 344.42V351.675C184.281 352.293 184.324 352.695 184.411 352.881C184.51 353.066 184.665 353.202 184.875 353.289C185.085 353.376 185.543 353.419 186.248 353.419H187.064V357H175.616V353.419H176.562C177.243 353.419 177.663 353.382 177.824 353.308C177.997 353.233 178.127 353.104 178.214 352.918C178.3 352.732 178.344 352.318 178.344 351.675V343.158H175.616V339.596C177.632 339.472 179.729 338.952 181.906 338.037H183.65ZM210.192 349.986L212.92 352.38C211.46 354.149 209.945 355.435 208.374 356.239C206.803 357.043 205.121 357.445 203.327 357.445C200.457 357.445 198.058 356.511 196.128 354.644C194.211 352.776 193.252 350.5 193.252 347.815C193.252 345.997 193.697 344.333 194.588 342.824C195.491 341.315 196.722 340.14 198.28 339.299C199.851 338.458 201.7 338.037 203.828 338.037C206.376 338.037 208.454 338.631 210.062 339.818C211.683 340.993 212.493 342.237 212.493 343.548C212.493 344.104 212.363 344.605 212.103 345.051C211.856 345.484 211.473 345.836 210.953 346.108C210.434 346.381 209.883 346.517 209.302 346.517C208.832 346.517 208.411 346.424 208.04 346.238C207.669 346.053 207.36 345.818 207.112 345.533C207.001 345.41 206.784 345.026 206.463 344.383C206.055 343.579 205.739 343.047 205.517 342.787C205.294 342.527 205.028 342.329 204.719 342.193C204.409 342.045 204.057 341.971 203.661 341.971C203.018 341.971 202.399 342.181 201.806 342.602C201.224 343.01 200.742 343.634 200.358 344.476C199.987 345.317 199.802 346.257 199.802 347.296C199.802 348.434 200.024 349.461 200.47 350.376C200.915 351.279 201.509 351.965 202.251 352.436C203.005 352.906 203.834 353.141 204.737 353.141C205.603 353.141 206.475 352.906 207.353 352.436C208.232 351.965 209.178 351.149 210.192 349.986ZM224.507 329.762V340.06C225.732 339.317 226.814 338.798 227.754 338.501C228.694 338.192 229.603 338.037 230.482 338.037C231.657 338.037 232.702 338.291 233.617 338.798C234.545 339.293 235.225 339.917 235.658 340.672C236.091 341.426 236.308 342.435 236.308 343.696V351.434C236.308 352.188 236.339 352.646 236.4 352.807C236.499 353.042 236.685 353.215 236.957 353.326C237.118 353.388 237.557 353.419 238.274 353.419H239.147V357H228.236V353.419H228.793C229.325 353.419 229.69 353.369 229.888 353.271C230.086 353.172 230.222 353.035 230.296 352.862C230.37 352.677 230.407 352.238 230.407 351.545V345.144C230.407 344.302 230.352 343.746 230.24 343.474C230.141 343.189 229.956 342.96 229.684 342.787C229.412 342.602 229.071 342.509 228.663 342.509C228.082 342.509 227.469 342.626 226.826 342.861C226.195 343.096 225.422 343.529 224.507 344.16V351.545C224.507 352.25 224.544 352.689 224.618 352.862C224.692 353.035 224.835 353.172 225.045 353.271C225.255 353.369 225.651 353.419 226.232 353.419H226.641V357H215.842V353.419H216.881C217.487 353.419 217.871 353.382 218.031 353.308C218.205 353.221 218.334 353.085 218.421 352.899C218.508 352.701 218.551 352.318 218.551 351.749V334.938H215.842V331.339C216.869 331.277 218.019 331.104 219.293 330.819C220.58 330.522 221.736 330.17 222.763 329.762H224.507ZM272.6 339.948H281.692V343.511H280.578C279.948 343.511 279.508 343.573 279.261 343.696C279.014 343.82 278.81 344.03 278.649 344.327C278.55 344.488 278.346 345.181 278.036 346.405C277.826 347.185 277.498 348.057 277.053 349.021C276.608 349.974 276.113 350.84 275.569 351.619C276.113 352.448 276.564 352.992 276.923 353.252C277.294 353.512 277.665 353.642 278.036 353.642C278.469 353.642 278.834 353.499 279.131 353.215C279.428 352.918 279.576 352.541 279.576 352.083C279.576 351.638 279.391 351.1 279.02 350.469C278.661 349.9 278.482 349.405 278.482 348.984C278.482 348.354 278.729 347.803 279.224 347.333C279.719 346.851 280.312 346.609 281.005 346.609C281.908 346.609 282.663 346.974 283.269 347.704C283.887 348.422 284.197 349.442 284.197 350.766C284.197 352.695 283.51 354.291 282.137 355.553C280.776 356.814 278.97 357.445 276.719 357.445C275.593 357.445 274.659 357.303 273.917 357.019C273.175 356.734 272.371 356.19 271.505 355.386C269.526 356.759 267.225 357.445 264.603 357.445C261.807 357.445 259.537 356.641 257.793 355.033C256.049 353.425 255.177 351.458 255.177 349.133C255.177 347.191 255.734 345.502 256.847 344.067C257.725 342.929 259.197 341.785 261.263 340.635C260.397 340.078 259.742 339.435 259.296 338.705C258.863 337.963 258.647 337.14 258.647 336.237C258.647 334.691 259.247 333.38 260.447 332.304C261.659 331.215 263.236 330.671 265.178 330.671C267.157 330.671 268.703 331.172 269.817 332.174C270.93 333.163 271.487 334.413 271.487 335.922C271.487 337.184 271.171 338.26 270.54 339.15C270.046 339.843 269.297 340.443 268.295 340.95C268.988 341.259 269.532 341.587 269.928 341.934C270.472 342.416 271.023 343.078 271.579 343.919C271.938 344.451 272.637 345.774 273.676 347.89C274.394 346.257 274.752 345.088 274.752 344.383C274.752 344.185 274.69 344.012 274.567 343.863C274.443 343.702 274.276 343.604 274.066 343.566C273.917 343.529 273.429 343.511 272.6 343.511V339.948ZM265.141 334.104C264.572 334.104 264.108 334.332 263.749 334.79C263.391 335.235 263.211 335.891 263.211 336.757C263.211 337.524 263.397 338.136 263.768 338.594C264.139 339.039 264.578 339.262 265.085 339.262C265.407 339.262 265.728 339.163 266.05 338.965C266.372 338.755 266.601 338.482 266.737 338.148C266.935 337.715 267.034 337.221 267.034 336.664C267.034 335.798 266.848 335.155 266.477 334.734C266.106 334.314 265.66 334.104 265.141 334.104ZM265.085 342.88C263.885 343.498 262.976 344.271 262.358 345.199C261.739 346.115 261.43 347.098 261.43 348.149C261.43 349.51 261.888 350.667 262.803 351.619C263.731 352.559 264.844 353.029 266.143 353.029C267.145 353.029 268.153 352.8 269.167 352.343C268.883 351.873 268.648 351.359 268.462 350.803L267.46 347.333C267.102 346.121 266.811 345.273 266.588 344.791C266.366 344.309 266.149 343.938 265.939 343.678C265.728 343.418 265.444 343.152 265.085 342.88ZM299.299 331.116H312.863C315.943 331.116 318.392 331.605 320.21 332.582C322.029 333.559 323.476 335.007 324.552 336.924C325.641 338.841 326.185 341.142 326.185 343.826C326.185 345.694 325.907 347.364 325.35 348.836C324.806 350.308 323.989 351.638 322.901 352.825C321.812 354 320.643 354.885 319.394 355.479C318.454 355.924 317.118 356.289 315.386 356.573C313.667 356.858 312.288 357 311.249 357H299.299V353.419H300.19C300.945 353.419 301.439 353.357 301.674 353.233C301.909 353.11 302.101 352.899 302.25 352.603C302.349 352.368 302.398 351.854 302.398 351.062V336.924C302.398 336.132 302.342 335.625 302.231 335.402C302.132 335.167 301.959 334.994 301.711 334.883C301.476 334.759 300.969 334.697 300.19 334.697H299.299V331.116ZM308.762 335.272V351.359C308.762 351.904 308.793 352.238 308.855 352.361C308.954 352.547 309.096 352.677 309.282 352.751C309.48 352.813 309.944 352.844 310.673 352.844C312.702 352.844 314.285 352.535 315.423 351.916C316.574 351.285 317.502 350.283 318.207 348.91C318.912 347.525 319.264 345.88 319.264 343.975C319.264 342.094 318.93 340.462 318.262 339.076C317.607 337.678 316.79 336.695 315.813 336.126C314.836 335.557 313.438 335.272 311.62 335.272H308.762ZM346.122 350.135L348.664 352.695C347.204 354.365 345.714 355.577 344.192 356.332C342.683 357.074 341.05 357.445 339.294 357.445C336.473 357.445 334.098 356.493 332.169 354.588C330.239 352.671 329.274 350.357 329.274 347.648C329.274 345.867 329.707 344.241 330.573 342.769C331.439 341.284 332.639 340.128 334.173 339.299C335.706 338.458 337.444 338.037 339.386 338.037C340.623 338.037 341.749 338.216 342.763 338.575C343.778 338.934 344.662 339.447 345.417 340.115C346.184 340.783 346.796 341.593 347.254 342.546C347.724 343.486 348.045 344.463 348.218 345.478C348.293 345.985 348.33 346.789 348.33 347.89H335.842C335.867 349.461 336.325 350.735 337.216 351.712C338.119 352.677 339.219 353.159 340.518 353.159C341.347 353.159 342.25 352.912 343.227 352.417C344.204 351.91 345.169 351.149 346.122 350.135ZM342.411 344.772C342.324 344.03 342.145 343.449 341.873 343.028C341.613 342.595 341.254 342.255 340.797 342.008C340.351 341.748 339.881 341.618 339.386 341.618C338.867 341.618 338.366 341.748 337.883 342.008C337.401 342.268 337.011 342.62 336.715 343.065C336.43 343.511 336.244 344.08 336.158 344.772H342.411ZM363.257 338.482H373.109V342.063C372.28 342.076 371.798 342.101 371.662 342.138C371.452 342.2 371.229 342.348 370.994 342.583C370.771 342.818 370.542 343.183 370.307 343.678L364.24 357H359.267L352.94 343.27C352.792 342.96 352.6 342.694 352.365 342.472C352.18 342.299 351.975 342.187 351.753 342.138C351.604 342.088 351.153 342.063 350.398 342.063V338.482H361.772V342.063H361.179C360.449 342.063 359.997 342.119 359.824 342.23C359.589 342.379 359.471 342.571 359.471 342.806C359.471 342.991 359.552 343.282 359.713 343.678L362.589 350.896L365.576 343.678C365.749 343.27 365.836 342.966 365.836 342.769C365.836 342.521 365.706 342.336 365.446 342.212C365.248 342.113 364.809 342.063 364.129 342.063H363.257V338.482ZM391.747 350.135L394.289 352.695C392.829 354.365 391.339 355.577 389.817 356.332C388.308 357.074 386.675 357.445 384.919 357.445C382.099 357.445 379.724 356.493 377.794 354.588C375.864 352.671 374.899 350.357 374.899 347.648C374.899 345.867 375.332 344.241 376.198 342.769C377.064 341.284 378.264 340.128 379.798 339.299C381.332 338.458 383.07 338.037 385.012 338.037C386.249 338.037 387.374 338.216 388.389 338.575C389.403 338.934 390.287 339.447 391.042 340.115C391.809 340.783 392.421 341.593 392.879 342.546C393.349 343.486 393.671 344.463 393.844 345.478C393.918 345.985 393.955 346.789 393.955 347.89H381.468C381.492 349.461 381.95 350.735 382.841 351.712C383.744 352.677 384.845 353.159 386.143 353.159C386.972 353.159 387.875 352.912 388.852 352.417C389.83 351.91 390.795 351.149 391.747 350.135ZM388.036 344.772C387.949 344.03 387.77 343.449 387.498 343.028C387.238 342.595 386.879 342.255 386.422 342.008C385.977 341.748 385.506 341.618 385.012 341.618C384.492 341.618 383.991 341.748 383.509 342.008C383.026 342.268 382.637 342.62 382.34 343.065C382.055 343.511 381.87 344.08 381.783 344.772H388.036ZM405.69 329.762V351.471C405.69 352.201 405.721 352.633 405.783 352.77C405.87 353.017 406.062 353.196 406.358 353.308C406.544 353.382 407.045 353.419 407.861 353.419H408.511V357H397.025V353.419H397.731C398.473 353.419 398.949 353.376 399.159 353.289C399.37 353.19 399.524 353.042 399.623 352.844C399.722 352.633 399.772 352.176 399.772 351.471V334.92H397.025V331.32C399.24 331.172 401.528 330.652 403.891 329.762H405.69ZM420.988 338.037C423.104 338.037 424.947 338.451 426.518 339.28C428.089 340.109 429.295 341.241 430.136 342.676C430.989 344.098 431.416 345.768 431.416 347.686C431.416 350.58 430.476 352.93 428.596 354.736C426.716 356.542 424.205 357.445 421.063 357.445C417.859 357.445 415.311 356.536 413.418 354.718C411.587 352.986 410.672 350.642 410.672 347.686C410.672 345.743 411.086 344.074 411.915 342.676C412.756 341.278 413.969 340.159 415.552 339.317C417.135 338.464 418.947 338.037 420.988 338.037ZM421.063 342.101C420.358 342.101 419.696 342.311 419.077 342.731C418.459 343.152 417.976 343.771 417.63 344.587C417.296 345.403 417.129 346.442 417.129 347.704C417.129 349.003 417.296 350.079 417.63 350.933C417.964 351.786 418.422 352.417 419.003 352.825C419.597 353.233 420.246 353.438 420.951 353.438C422.04 353.438 422.974 352.98 423.753 352.064C424.532 351.137 424.922 349.702 424.922 347.76C424.922 345.88 424.557 344.469 423.827 343.529C423.11 342.577 422.188 342.101 421.063 342.101ZM442.632 338.037V340.097C444.042 339.231 445.118 338.674 445.861 338.427C446.615 338.167 447.419 338.037 448.273 338.037C450.437 338.037 452.2 338.835 453.561 340.431C455.119 342.261 455.899 344.599 455.899 347.444C455.899 350.166 455.218 352.442 453.858 354.272C452.299 356.388 450.209 357.445 447.586 357.445C446.745 357.445 446.009 357.346 445.378 357.148C444.747 356.963 444.061 356.617 443.319 356.109V359.839C443.319 360.581 443.356 361.026 443.43 361.175C443.517 361.36 443.653 361.49 443.838 361.564C444.036 361.651 444.518 361.694 445.285 361.694H446.157V365.275H434.616V361.694H435.247C436.101 361.694 436.614 361.657 436.787 361.583C436.973 361.521 437.115 361.379 437.214 361.156C437.325 360.946 437.381 360.507 437.381 359.839V343.214H434.616V339.614C435.952 339.453 437.09 339.256 438.031 339.021C438.971 338.785 439.923 338.458 440.888 338.037H442.632ZM443.319 343.826V349.875C443.319 350.827 443.405 351.508 443.578 351.916C443.764 352.312 444.073 352.64 444.506 352.899C444.951 353.147 445.459 353.271 446.028 353.271C447.03 353.271 447.858 352.807 448.514 351.879C449.182 350.951 449.516 349.541 449.516 347.648C449.516 345.892 449.225 344.593 448.644 343.752C448.075 342.898 447.37 342.472 446.529 342.472C445.564 342.472 444.494 342.923 443.319 343.826ZM467.783 338.037V340.505C468.859 339.676 469.953 339.058 471.067 338.649C472.18 338.241 473.312 338.037 474.462 338.037C475.192 338.037 475.891 338.148 476.559 338.371C477.239 338.581 477.802 338.86 478.247 339.206C478.705 339.552 479.12 340.022 479.491 340.616C480.69 339.701 481.841 339.045 482.942 338.649C484.043 338.241 485.162 338.037 486.3 338.037C487.29 338.037 488.187 338.216 488.991 338.575C489.795 338.934 490.444 339.423 490.939 340.041C491.446 340.647 491.774 341.309 491.922 342.026C492.021 342.472 492.071 343.121 492.071 343.975V351.656C492.071 352.287 492.114 352.695 492.201 352.881C492.3 353.066 492.46 353.209 492.683 353.308C492.844 353.382 493.295 353.419 494.037 353.419H494.854V357H483.999V353.419C484.803 353.419 485.311 353.382 485.521 353.308C485.731 353.221 485.886 353.091 485.985 352.918C486.084 352.732 486.133 352.337 486.133 351.73V344.995C486.133 344.216 486.078 343.702 485.966 343.455C485.867 343.195 485.663 342.979 485.354 342.806C485.057 342.62 484.698 342.527 484.278 342.527C483.795 342.527 483.276 342.639 482.719 342.861C482.162 343.072 481.34 343.542 480.251 344.271V351.526C480.251 352.244 480.301 352.695 480.4 352.881C480.499 353.066 480.672 353.209 480.919 353.308C481.068 353.369 481.556 353.407 482.385 353.419V357H472.199V353.419C473.04 353.407 473.553 353.363 473.739 353.289C473.924 353.215 474.066 353.079 474.165 352.881C474.264 352.683 474.314 352.231 474.314 351.526V345.162C474.314 344.185 474.227 343.535 474.054 343.214C473.782 342.731 473.3 342.49 472.607 342.49C472.26 342.49 471.896 342.534 471.512 342.62C471.129 342.707 470.751 342.843 470.38 343.028C470.182 343.127 469.675 343.449 468.859 343.993L468.432 344.271V351.526C468.432 352.219 468.469 352.652 468.543 352.825C468.618 352.998 468.76 353.141 468.97 353.252C469.193 353.363 469.57 353.419 470.102 353.419H470.603V357H459.767V353.419H460.491C461.258 353.419 461.734 353.382 461.919 353.308C462.117 353.221 462.266 353.079 462.365 352.881C462.464 352.671 462.513 352.219 462.513 351.526V343.177H459.767V339.596C462.031 339.385 464.121 338.866 466.038 338.037H467.783ZM514.512 350.135L517.054 352.695C515.595 354.365 514.104 355.577 512.583 356.332C511.073 357.074 509.441 357.445 507.684 357.445C504.864 357.445 502.489 356.493 500.559 354.588C498.629 352.671 497.665 350.357 497.665 347.648C497.665 345.867 498.097 344.241 498.963 342.769C499.829 341.284 501.029 340.128 502.563 339.299C504.097 338.458 505.835 338.037 507.777 338.037C509.014 338.037 510.139 338.216 511.154 338.575C512.168 338.934 513.053 339.447 513.807 340.115C514.574 340.783 515.186 341.593 515.644 342.546C516.114 343.486 516.436 344.463 516.609 345.478C516.683 345.985 516.72 346.789 516.72 347.89H504.233C504.258 349.461 504.715 350.735 505.606 351.712C506.509 352.677 507.61 353.159 508.909 353.159C509.737 353.159 510.64 352.912 511.618 352.417C512.595 351.91 513.56 351.149 514.512 350.135ZM510.801 344.772C510.715 344.03 510.535 343.449 510.263 343.028C510.003 342.595 509.645 342.255 509.187 342.008C508.742 341.748 508.272 341.618 507.777 341.618C507.257 341.618 506.756 341.748 506.274 342.008C505.792 342.268 505.402 342.62 505.105 343.065C504.82 343.511 504.635 344.08 504.548 344.772H510.801ZM528.4 338.037V340.505C529.798 339.552 530.991 338.903 531.981 338.557C532.983 338.21 534.004 338.037 535.043 338.037C536.242 338.037 537.3 338.291 538.215 338.798C539.143 339.305 539.817 339.942 540.238 340.709C540.658 341.464 540.869 342.54 540.869 343.938V351.656C540.869 352.312 540.912 352.732 540.999 352.918C541.098 353.104 541.246 353.24 541.444 353.326C541.592 353.388 542.038 353.419 542.78 353.419H543.689V357H532.797V353.419C533.626 353.407 534.09 353.388 534.189 353.363C534.498 353.277 534.702 353.134 534.801 352.937C534.9 352.739 534.95 352.312 534.95 351.656V344.847C534.95 343.968 534.857 343.399 534.672 343.14C534.375 342.707 533.905 342.49 533.261 342.49C532.729 342.49 532.16 342.608 531.554 342.843C530.948 343.078 530.132 343.56 529.105 344.29V351.656C529.105 352.46 529.192 352.955 529.365 353.141C529.538 353.326 529.952 353.419 530.608 353.419H531.202V357H520.422V353.419H520.96C521.813 353.419 522.339 353.382 522.537 353.308C522.747 353.233 522.902 353.104 523.001 352.918C523.112 352.732 523.168 352.368 523.168 351.823V343.177H520.422V339.596C522.648 339.324 524.732 338.804 526.674 338.037H528.4ZM554.738 332.118V338.482H560.713V342.435H554.738V348.892C554.738 350.351 554.812 351.291 554.961 351.712C555.122 352.12 555.412 352.448 555.833 352.695C556.389 353.029 557.026 353.196 557.744 353.196C559.018 353.196 560.286 352.782 561.548 351.953V355.924C560.471 356.431 559.494 356.79 558.616 357C557.75 357.198 556.81 357.297 555.796 357.297C554.645 357.297 553.625 357.155 552.734 356.87C551.856 356.573 551.101 356.159 550.47 355.627C549.852 355.083 549.419 354.507 549.172 353.901C548.937 353.295 548.819 352.417 548.819 351.267V342.435H546.036V338.872C547.025 338.55 547.873 338.093 548.578 337.499C549.283 336.893 549.846 336.169 550.266 335.328C550.699 334.487 550.996 333.417 551.157 332.118H554.738Z" fill="#295097"/>
<path d="M352.202 284.5V268.682H357.746V284.5H352.202ZM369.935 284.808C367.559 284.808 365.66 284.419 364.237 283.642C362.697 282.791 361.803 281.53 361.553 279.858H367.867C368.234 280.533 368.461 280.914 368.549 281.002C368.887 281.354 369.415 281.53 370.133 281.53C370.808 281.53 371.365 281.413 371.805 281.178C372.245 280.943 372.465 280.613 372.465 280.188C372.465 279.763 372.113 279.374 371.409 279.022C371.043 278.846 370.405 278.626 369.495 278.362C367.105 277.643 365.499 277.042 364.677 276.558C363.225 275.707 362.499 274.571 362.499 273.148C362.499 271.637 363.189 270.457 364.567 269.606C365.902 268.785 367.699 268.374 369.957 268.374C374.636 268.374 377.313 269.841 377.987 272.774C375.758 273.199 373.998 273.471 372.707 273.588C372.502 272.869 372.238 272.363 371.915 272.07C371.519 271.718 370.925 271.542 370.133 271.542C368.755 271.542 368.065 271.931 368.065 272.708C368.065 273.133 368.439 273.515 369.187 273.852C369.554 274.013 370.199 274.226 371.123 274.49C373.573 275.179 375.215 275.759 376.051 276.228C377.591 277.079 378.361 278.215 378.361 279.638C378.361 281.295 377.547 282.586 375.919 283.51C374.409 284.375 372.414 284.808 369.935 284.808ZM397.592 282.036C396.155 283.884 393.661 284.808 390.112 284.808C386.636 284.808 384.172 283.943 382.72 282.212C381.635 280.907 381.092 279.037 381.092 276.602V276.558C381.092 273.727 381.803 271.689 383.226 270.442C384.795 269.063 387.076 268.374 390.068 268.374H390.134C393.258 268.374 395.597 269.129 397.152 270.64C398.428 271.872 399.066 273.852 399.066 276.58C399.066 278.941 398.575 280.76 397.592 282.036ZM392.928 275.59C392.928 273.053 391.96 271.784 390.024 271.784C388.088 271.784 387.12 273.053 387.12 275.59V277.35C387.12 280.093 388.088 281.464 390.024 281.464C391.96 281.464 392.928 280.093 392.928 277.35V275.59ZM426.483 282.256C425.134 283.943 422.817 284.786 419.531 284.786C415.205 284.786 412.792 283.356 412.293 280.496L417.683 280.166C417.903 281.207 418.563 281.728 419.663 281.728C420.543 281.728 421.181 281.449 421.577 280.892C421.9 280.408 422.069 279.506 422.083 278.186C420.983 278.773 419.685 279.066 418.189 279.066C416.209 279.066 414.669 278.626 413.569 277.746C412.469 276.851 411.919 275.634 411.919 274.094C411.919 272.29 412.631 270.897 414.053 269.914C415.417 268.99 417.324 268.528 419.773 268.528C422.047 268.528 423.88 268.961 425.273 269.826C426.3 270.486 427.026 271.403 427.451 272.576C427.803 273.559 427.979 274.849 427.979 276.448C427.979 279.088 427.481 281.024 426.483 282.256ZM419.773 271.542C418.351 271.542 417.639 272.297 417.639 273.808C417.639 275.289 418.365 276.03 419.817 276.03C421.284 276.03 422.017 275.282 422.017 273.786C422.017 272.29 421.269 271.542 419.773 271.542ZM445.732 282.058C445.175 282.879 444.317 283.532 443.158 284.016C441.926 284.529 440.489 284.786 438.846 284.786C436.089 284.786 433.992 284.097 432.554 282.718C431.322 281.545 430.706 279.521 430.706 276.646C430.706 273.727 431.352 271.674 432.642 270.486C434.08 269.181 436.148 268.528 438.846 268.528C441.677 268.528 443.811 269.225 445.248 270.618C446.466 271.791 447.074 273.676 447.074 276.272C447.074 278.795 446.627 280.723 445.732 282.058ZM441.178 274.402C441.178 272.539 440.408 271.608 438.868 271.608C437.314 271.608 436.536 272.539 436.536 274.402V278.78C436.536 280.789 437.314 281.794 438.868 281.794C440.408 281.794 441.178 280.789 441.178 278.78V274.402ZM464.82 282.058C464.263 282.879 463.405 283.532 462.246 284.016C461.014 284.529 459.577 284.786 457.934 284.786C455.177 284.786 453.079 284.097 451.642 282.718C450.41 281.545 449.794 279.521 449.794 276.646C449.794 273.727 450.439 271.674 451.73 270.486C453.167 269.181 455.235 268.528 457.934 268.528C460.765 268.528 462.899 269.225 464.336 270.618C465.553 271.791 466.162 273.676 466.162 276.272C466.162 278.795 465.715 280.723 464.82 282.058ZM460.266 274.402C460.266 272.539 459.496 271.608 457.956 271.608C456.401 271.608 455.624 272.539 455.624 274.402V278.78C455.624 280.789 456.401 281.794 457.956 281.794C459.496 281.794 460.266 280.789 460.266 278.78V274.402ZM471.367 284.5V281.486H473.853L473.831 274.138H469.277V271.432C472.739 271.095 474.711 270.163 475.195 268.638H479.199V281.442H481.421V284.5H471.367ZM485.541 276.668V272.774H490.997V276.668H485.541ZM485.541 284.5V280.606H490.997V284.5H485.541ZM494.986 284.5V281.398L496.504 280.364C498.264 279.308 500.032 278.252 501.806 277.196C503.992 275.744 505.084 274.409 505.084 273.192C505.084 272.752 504.908 272.393 504.556 272.114C504.204 271.821 503.713 271.674 503.082 271.674C502.364 271.674 501.828 271.857 501.476 272.224C501.198 272.532 500.978 273.038 500.816 273.742L495.646 273.214C495.661 272.994 495.72 272.759 495.822 272.51C496.79 269.841 499.284 268.506 503.302 268.506C505.517 268.506 507.321 268.909 508.714 269.716C510.21 270.581 510.958 271.762 510.958 273.258C510.958 274.373 510.54 275.414 509.704 276.382C509.074 277.115 508.084 277.922 506.734 278.802C505.59 279.535 504.439 280.276 503.28 281.024H511.09V284.5H494.986ZM528.989 282.058C528.431 282.879 527.573 283.532 526.415 284.016C525.183 284.529 523.745 284.786 522.103 284.786C519.345 284.786 517.248 284.097 515.811 282.718C514.579 281.545 513.963 279.521 513.963 276.646C513.963 273.727 514.608 271.674 515.899 270.486C517.336 269.181 519.404 268.528 522.103 268.528C524.933 268.528 527.067 269.225 528.505 270.618C529.722 271.791 530.331 273.676 530.331 276.272C530.331 278.795 529.883 280.723 528.989 282.058ZM524.435 274.402C524.435 272.539 523.665 271.608 522.125 271.608C520.57 271.608 519.793 272.539 519.793 274.402V278.78C519.793 280.789 520.57 281.794 522.125 281.794C523.665 281.794 524.435 280.789 524.435 278.78V274.402ZM535.536 284.5V281.486H538.022L538 274.138H533.446V271.432C536.907 271.095 538.88 270.163 539.364 268.638H543.368V281.442H545.59V284.5H535.536ZM557.806 284.808C555.489 284.808 553.641 284.383 552.262 283.532C550.81 282.667 549.959 281.405 549.71 279.748L555.848 280.144C556.156 281.112 556.772 281.596 557.696 281.596C559.324 281.596 560.138 280.87 560.138 279.418C560.138 277.687 559.302 276.822 557.63 276.822C556.559 276.822 555.789 277.211 555.32 277.988L550.48 277.724L551.162 268.77H564.802L564.494 272.158H555.606L555.408 274.578C556.552 274.035 557.887 273.764 559.412 273.764C561.568 273.764 563.225 274.314 564.384 275.414C565.381 276.382 565.88 277.607 565.88 279.088C565.88 280.848 565.191 282.227 563.812 283.224C562.389 284.28 560.387 284.808 557.806 284.808Z" fill="#373435"/>
<path d="M550.212 133.515H559.45C560.045 133.515 560.693 133.568 561.395 133.676C562.104 133.783 562.741 134.02 563.307 134.385C563.88 134.75 564.324 135.212 564.639 135.771C564.954 136.329 565.111 136.959 565.111 137.661C565.111 138.8 564.703 139.724 563.887 140.433C563.077 141.134 562.118 141.593 561.008 141.808L564.091 145.396L564.22 145.557C564.42 145.8 564.603 145.983 564.768 146.104C564.932 146.219 565.097 146.301 565.262 146.352C565.426 146.402 565.656 146.427 565.949 146.427H566.594V148.5H561.792L556.979 142.044H555.733V145.03C555.733 145.546 555.762 145.875 555.819 146.019C555.877 146.155 555.966 146.258 556.088 146.33C556.217 146.395 556.471 146.427 556.851 146.427H557.538V148.5H550.212V146.427H550.878C551.229 146.427 551.476 146.391 551.619 146.319C551.77 146.241 551.881 146.126 551.952 145.976C551.988 145.89 552.006 145.621 552.006 145.17V136.737C552.006 136.408 551.977 136.175 551.92 136.039C551.87 135.896 551.784 135.803 551.662 135.76C551.49 135.681 551.293 135.642 551.071 135.642L550.771 135.652H550.212V133.515ZM555.733 135.975V139.853H557.957C558.831 139.853 559.482 139.774 559.912 139.616C560.349 139.451 560.675 139.219 560.89 138.918C561.112 138.617 561.223 138.252 561.223 137.822C561.223 137.428 561.119 137.092 560.911 136.812C560.711 136.526 560.421 136.315 560.041 136.179C559.669 136.043 559.056 135.975 558.204 135.975H555.733Z" fill="#373435"/>
<circle cx="558" cy="140.5" r="14" stroke="#373435" stroke-width="4"/>
</svg>
